<?xml version="1.0" standalone="no"?><!DOCTYPE svg PUBLIC "-//W3C//DTD SVG 1.1//EN" "http://www.w3.org/Graphics/SVG/1.1/DTD/svg11.dtd" ><svg xmlns="http://www.w3.org/2000/svg"><metadata></metadata><defs><font id="Founder:FZYanSongS-R-GB	Regular" horiz-adv-x="268"><font-face font-family="FZYanSongS-R-GB" font-weight="400" font-stretch="normal" units-per-em="256" panose-1="2 0 0 0 0 0 0 0 0 0" ascent="247" descent="-64" x-height="0" bbox="-18 -61 265 214" underline-thickness="12" underline-position="-52" unicode-range="U+0021-ffe5" /><missing-glyph horiz-adv-x="256" d="M65 -9 q-17 1 -18 15 q2 17 18 18 q17 -1 18 -18 q-1 -14 -18 -15 ZM71 51 l-10 0 q-2 53 -8 88 q-4 22 -4 34 q0 18 17 17 q16 1 16 -17 q0 -10 -4 -34 q-4 -25 -7 -88 Z" /><glyph glyph-name="" unicode="!" d="M65 -9 q-17 1 -18 15 q2 17 18 18 q17 -1 18 -18 q-1 -14 -18 -15 ZM71 51 l-10 0 q-2 53 -8 88 q-4 22 -4 34 q0 18 17 17 q16 1 16 -17 q0 -10 -4 -34 q-4 -25 -7 -88 Z" /><glyph glyph-name="" unicode="&quot;" d="M35 123 l-9 67 l29 0 l-9 -67 l-11 0 ZM85 123 l-9 67 l29 0 l-9 -67 l-11 0 Z" /><glyph glyph-name="" unicode="$" d="M78 -22 l0 17 q-60 2 -61 38 q1 14 13 15 q13 -1 14 -12 q0 -6 -3 -9 q-3 -4 -1 -9 q10 -15 38 -17 l0 82 q-61 20 -58 56 q3 42 58 47 l0 17 l10 0 l0 -17 q55 -3 57 -38 q-1 -14 -14 -15 q-12 1 -13 13 q0 5 3 8 q3 5 0 9 q-9 13 -33 15 l0 -74 q60 -21 58 -57 q-2 -47 -58 -52 l0 -17 l-10 0 ZM78 108 l0 70 q-30 -4 -31 -31 q-1 -27 31 -39 ZM88 80 l0 -79 q31 5 32 36 q2 30 -32 43 Z" /><glyph glyph-name="" unicode="%" d="M55 82 q-45 2 -47 53 q1 53 47 55 q45 -2 47 -54 q-2 -51 -47 -54 ZM55 89 q24 0 24 47 q0 48 -24 47 q-24 1 -24 -47 q-1 -49 24 -47 ZM40 -9 l-8 6 l146 193 l8 -5 l-146 -194 ZM164 -9 q-46 1 -47 50 q2 54 47 56 q45 -3 47 -55 q-2 -49 -47 -51 ZM164 -2 q24 -1 24 44 q0 49 -24 48 q-24 1 -24 -48 q-1 -45 24 -44 Z" /><glyph glyph-name="" unicode="&amp;" d="M90 100 l57 -66 q16 20 16 43 q1 17 -23 16 l0 9 l61 0 l0 -9 q-22 1 -25 -14 q-5 -29 -23 -51 l11 -12 q14 -15 39 -15 l0 -7 l-51 0 l-16 16 q-29 -19 -63 -19 q-52 3 -56 47 q-1 36 45 58 q-27 31 -26 49 q3 43 56 45 q50 -2 53 -39 q2 -29 -55 -51 ZM85 106 q38 19 38 46 q-1 29 -31 30 q-30 -2 -32 -29 q-1 -19 25 -47 ZM130 16 l-62 73 q-27 -18 -27 -42 q2 -43 46 -45 q24 0 43 14 Z" /><glyph glyph-name="" unicode="&#39;" d="M60 123 l-9 67 l29 0 l-9 -67 l-11 0 Z" /><glyph glyph-name="" unicode="(" d="M120 197 l6 -4 q-44 -50 -44 -121 q1 -66 44 -116 l-6 -4 q-64 48 -64 120 q0 74 64 125 Z" /><glyph glyph-name="" unicode=")" d="M11 -48 l-6 4 q44 51 43 116 q2 70 -43 121 l6 4 q64 -51 64 -125 q0 -72 -64 -120 Z" /><glyph glyph-name="" unicode="*" d="M53 93 l9 36 l-32 -27 q-5 -4 -8 -4 q-11 2 -13 15 q0 6 8 9 l43 11 l-43 11 q-8 2 -8 9 q2 12 12 14 q5 0 9 -3 l32 -27 l-9 35 q0 2 0 5 q-1 4 -1 5 q0 8 13 8 q13 0 13 -8 q0 -3 -1 -10 l-9 -35 l32 27 q6 3 10 3 q10 -2 11 -14 q0 -7 -8 -9 l-43 -11 l43 -11 q7 -2 8 -9 q-2 -13 -12 -15 q-4 0 -9 4 l-32 27 l9 -35 q1 -3 1 -10 q0 -8 -13 -8 q-13 0 -13 8 q0 6 1 9 Z" /><glyph glyph-name="" unicode="+" d="M58 29 l0 54 l-52 0 l0 13 l52 0 l0 53 l15 0 l0 -53 l52 0 l0 -13 l-52 0 l0 -54 l-15 0 Z" /><glyph glyph-name="" unicode="," d="M22 -35 l-4 6 q22 14 22 22 q0 5 -6 5 q-14 2 -14 13 q1 15 18 16 q19 -1 20 -20 q0 -25 -36 -42 Z" /><glyph glyph-name="" unicode="-" d="M6 83 l0 13 l119 0 l0 -13 l-119 0 Z" /><glyph glyph-name="" unicode="." d="M39 -9 q-17 1 -19 16 q1 17 19 18 q17 -2 19 -18 q-2 -14 -19 -16 Z" /><glyph glyph-name="" unicode="/" d="M12 -5 l99 191 l16 0 l-99 -191 l-16 0 Z" /><glyph glyph-name="" unicode="0" d="M81 -9 q-70 0 -70 98 q2 98 70 101 q69 -2 70 -101 q-1 -96 -70 -98 ZM81 -1 q43 1 44 90 q-1 91 -44 93 q-42 -2 -44 -93 q0 -89 44 -90 Z" /><glyph glyph-name="" unicode="1" d="M36 -5 l0 6 q37 -1 35 27 l0 113 q2 30 -26 27 l0 8 l51 14 q0 -2 0 -5 q-2 -41 -2 -52 l0 -105 q-2 -28 34 -27 l0 -6 l-92 0 Z" /><glyph glyph-name="" unicode="2" d="M31 16 l76 0 q24 -4 33 40 l10 -2 l-10 -59 l-125 0 q3 60 60 93 q48 21 46 52 q-2 40 -40 42 q-28 -1 -40 -27 q-2 -6 2 -9 q3 -4 3 -9 q-1 -12 -14 -14 q-13 1 -14 16 q5 47 64 51 q62 -2 65 -51 q1 -42 -58 -65 q-42 -15 -58 -58 Z" /><glyph glyph-name="" unicode="3" d="M54 89 l0 8 q63 7 62 47 q-1 37 -37 38 q-27 -1 -37 -22 q-3 -4 0 -9 q4 -3 4 -8 q-1 -13 -14 -14 q-13 1 -14 16 q4 42 62 45 q60 -2 62 -47 q-1 -40 -55 -50 q58 -6 59 -51 q-3 -49 -69 -51 q-60 2 -63 42 q1 14 14 15 q13 -1 14 -13 q0 -4 -3 -9 q-4 -3 -1 -9 q10 -17 38 -18 q42 2 44 43 q1 43 -66 47 Z" /><glyph glyph-name="" unicode="4" d="M75 -5 l0 6 q25 -1 23 23 l0 19 l-93 0 l0 9 l98 136 l19 0 l0 -136 l27 0 l0 -9 l-27 0 l0 -19 q-3 -24 24 -23 l0 -6 l-71 0 ZM98 52 l0 112 l-81 -112 l81 0 Z" /><glyph glyph-name="" unicode="5" d="M29 72 l-7 2 l9 112 l106 0 l0 -24 l-98 0 l-6 -72 q21 23 50 23 q60 -4 64 -61 q-3 -57 -69 -61 q-60 2 -63 40 q1 15 14 16 q13 -1 14 -14 q0 -5 -3 -8 q-4 -4 -1 -9 q9 -16 38 -17 q42 2 44 52 q-2 46 -43 49 q-27 1 -49 -28 Z" /><glyph glyph-name="" unicode="6" d="M83 -1 q40 1 41 55 q-1 48 -42 50 q-39 -3 -42 -47 q2 -56 43 -58 ZM83 -9 q-68 1 -69 91 q2 103 74 108 q52 -2 56 -38 q-1 -15 -15 -16 q-12 1 -13 13 q0 4 3 8 q3 5 1 9 q-11 16 -31 16 q-48 -4 -49 -90 q20 25 49 25 q58 -4 61 -62 q-2 -61 -67 -64 Z" /><glyph glyph-name="" unicode="7" d="M131 163 l-75 0 q-21 4 -31 -44 l-10 2 l8 65 l125 0 l0 -18 q-62 -87 -63 -164 q0 -14 -14 -13 q-14 0 -14 12 q0 51 74 160 Z" /><glyph glyph-name="" unicode="8" d="M78 -9 q-61 2 -64 46 q1 32 46 51 q-41 20 -40 51 q3 48 61 51 q58 -2 61 -45 q1 -31 -43 -46 q51 -22 50 -55 q-3 -51 -71 -53 ZM89 103 q32 18 32 41 q-1 37 -40 38 q-35 -2 -37 -33 q-2 -30 45 -46 ZM78 -1 q44 2 47 36 q2 28 -55 49 q-35 -21 -35 -46 q3 -37 43 -39 Z" /><glyph glyph-name="" unicode="9" d="M79 72 q41 3 44 45 q-2 62 -43 65 q-39 -3 -41 -58 q1 -50 40 -52 ZM76 -9 q-56 2 -58 35 q0 15 14 15 q12 -1 13 -13 q0 -5 -3 -8 q-3 -5 -1 -8 q12 -12 35 -13 q45 1 47 86 q-18 -24 -49 -25 q-59 3 -61 62 q3 64 67 68 q66 -3 69 -95 q0 -103 -73 -104 Z" /><glyph glyph-name="" unicode=":" d="M39 93 q-18 1 -19 18 q1 17 19 18 q17 -2 19 -18 q-2 -16 -19 -18 ZM39 -9 q-17 1 -19 16 q1 17 19 18 q17 -2 19 -18 q-2 -14 -19 -16 Z" /><glyph glyph-name="" unicode=";" d="M39 93 q-18 1 -19 18 q1 17 19 18 q17 -2 19 -18 q-2 -16 -19 -18 ZM22 -35 l-4 6 q22 14 22 22 q0 5 -6 5 q-14 2 -14 13 q1 15 18 16 q19 -1 20 -20 q0 -25 -36 -42 Z" /><glyph glyph-name="" unicode="=" d="M19 107 l0 13 l93 0 l0 -13 l-93 0 ZM19 59 l0 13 l93 0 l0 -13 l-93 0 Z" /><glyph glyph-name="" unicode="&gt;" d="M17 19 l0 21 l92 50 l-92 49 l0 21 l120 -66 l0 -8 l-120 -67 Z" /><glyph glyph-name="" unicode="?" d="M80 51 l-9 0 q0 39 19 52 q30 20 29 41 q-2 36 -40 38 q-33 -1 -40 -27 q-3 -5 1 -9 q4 -3 4 -9 q-1 -13 -14 -14 q-13 1 -14 16 q4 47 64 51 q62 -2 65 -46 q0 -30 -35 -47 q-26 -13 -30 -46 ZM80 -9 q-17 1 -18 15 q1 16 18 17 q17 -1 18 -17 q-1 -14 -18 -15 Z" /><glyph glyph-name="" unicode="a" d="M2 -5 l0 6 q22 -1 31 23 l62 164 l15 2 l55 -162 q9 -28 34 -27 l0 -6 l-88 0 l0 6 q41 -1 31 21 l-13 35 l-72 0 l-16 -40 q-9 -17 29 -16 l0 -6 l-68 0 ZM95 158 l-35 -91 l66 0 l-31 91 Z" /><glyph glyph-name="" unicode="b" d="M7 -5 l0 6 q24 -1 23 25 l0 126 q2 28 -23 26 l0 8 l88 0 q67 -1 68 -47 q0 -37 -48 -45 q52 -7 53 -50 q0 -49 -76 -49 l-85 0 ZM54 98 l42 0 q40 2 41 41 q-1 38 -40 39 l-43 0 l0 -80 ZM54 1 l41 0 q45 1 46 43 q-1 44 -45 45 l-42 0 l0 -88 Z" /><glyph glyph-name="" unicode="c" d="M151 180 l18 4 l5 -66 l-9 -3 q-15 70 -61 67 q-62 -4 -64 -91 q2 -88 66 -91 q44 0 65 47 l9 -4 q-21 -51 -75 -52 q-90 1 -91 99 q3 96 89 100 q23 0 48 -10 Z" /><glyph glyph-name="" unicode="d" d="M7 -5 l0 6 q25 -1 24 29 l0 120 q2 30 -23 28 l0 8 l77 0 q105 1 104 -95 q1 -97 -103 -96 l-79 0 ZM55 1 l28 0 q80 0 80 90 q0 87 -84 87 l-24 0 l0 -177 Z" /><glyph glyph-name="" unicode="e" d="M7 -5 l0 6 q24 -2 23 33 l0 111 q2 36 -23 33 l0 8 l142 0 l6 -57 l-9 -2 q-9 56 -47 51 l-45 0 l0 -81 l36 0 q31 -3 31 29 l8 0 l0 -68 l-8 0 q-1 34 -31 31 l-36 0 l0 -88 l45 0 q41 -6 49 58 l9 -3 l-5 -61 l-145 0 Z" /><glyph glyph-name="" unicode="f" d="M7 -5 l0 6 q25 -2 23 30 l0 115 q2 35 -22 32 l0 8 l141 0 l4 -57 l-9 -2 q-7 56 -44 51 l-46 0 l0 -81 l37 0 q29 -3 31 28 l8 0 l0 -67 l-8 0 q-2 34 -31 31 l-37 0 l0 -58 q-2 -32 23 -30 l0 -6 l-70 0 Z" /><glyph glyph-name="" unicode="h" d="M7 -5 l0 6 q26 -2 24 29 l0 116 q2 36 -23 32 l0 8 l69 0 l0 -8 q-25 4 -22 -32 l0 -46 l103 0 l0 46 q2 36 -22 32 l0 8 l69 0 l0 -8 q-25 4 -23 -32 l0 -115 q-3 -32 24 -30 l0 -6 l-71 0 l0 6 q25 -2 23 30 l0 59 l-103 0 l0 -60 q-3 -31 22 -29 l0 -6 l-70 0 Z" /><glyph glyph-name="" unicode="i" d="M6 -5 l0 6 q34 -2 31 29 l0 116 q3 35 -30 32 l0 8 l84 0 l0 -8 q-33 3 -30 -32 l0 -116 q-3 -31 31 -29 l0 -6 l-86 0 Z" /><glyph glyph-name="" unicode="j" d="M56 186 l69 0 l0 -8 q-25 4 -22 -32 l0 -112 q-2 -41 -53 -43 q-45 2 -47 28 q1 14 14 15 q13 0 13 -11 q0 -6 -3 -9 q-4 -5 -1 -8 q6 -8 24 -7 q28 1 29 30 l0 117 q2 36 -23 32 l0 8 Z" /><glyph glyph-name="" unicode="l" d="M7 -5 l0 6 q27 -2 24 30 l0 115 q3 36 -23 32 l0 8 l69 0 l0 -8 q-25 4 -22 -32 l0 -145 l41 0 q38 -6 49 62 l10 -2 l-7 -66 l-141 0 Z" /><glyph glyph-name="" unicode="m" d="M7 -5 l0 6 q30 -3 27 32 l0 113 q2 36 -23 32 l0 8 l50 0 l61 -155 l71 155 l50 0 l0 -8 q-26 5 -23 -32 l0 -116 q-3 -32 24 -29 l0 -6 l-71 0 l0 6 q25 -2 23 29 l0 140 l-78 -170 l-9 0 l-65 169 l0 -136 q-4 -36 26 -32 l0 -6 l-63 0 Z" /><glyph glyph-name="" unicode="o" d="M104 -9 q-88 2 -90 96 q2 100 90 103 q88 -2 90 -103 q-2 -94 -90 -96 ZM104 -1 q64 1 64 88 q0 94 -64 95 q-63 -2 -64 -95 q1 -87 64 -88 Z" /><glyph glyph-name="" unicode="p" d="M7 -5 l0 6 q25 -3 23 29 l0 116 q2 36 -22 32 l0 8 l79 0 q76 1 75 -56 q2 -59 -75 -58 l-33 0 l0 -41 q-3 -33 23 -30 l0 -6 l-70 0 ZM54 80 l24 0 q60 -2 58 49 q1 50 -57 49 l-25 0 l0 -98 Z" /><glyph glyph-name="" unicode="r" d="M7 -5 l0 6 q25 -2 23 29 l0 116 q2 35 -23 32 l0 8 l76 0 q79 1 78 -51 q0 -44 -60 -48 q29 -6 42 -39 q6 -14 13 -31 q7 -15 28 -16 l0 -6 l-48 0 q-11 34 -22 60 q-10 29 -36 28 l-24 0 l0 -53 q-3 -31 23 -29 l0 -6 l-70 0 ZM54 91 l25 0 q56 0 56 44 q1 44 -56 43 l-25 0 l0 -87 Z" /><glyph glyph-name="" unicode="s" d="M36 -2 l-17 -4 l-4 62 l9 1 q10 -62 53 -58 q42 1 43 35 q3 29 -57 50 q-50 18 -49 54 q2 50 60 52 q21 0 41 -7 l15 5 l4 -59 l-9 -3 q-12 59 -51 56 q-37 -1 -38 -34 q-3 -27 48 -45 q60 -21 58 -58 q-2 -52 -68 -54 q-18 0 -38 7 Z" /><glyph glyph-name="" unicode="t" d="M42 -5 l0 6 q39 -4 33 31 l0 146 l-18 0 q-38 8 -47 -63 l-8 2 l4 69 l162 0 l4 -68 l-9 -2 q-7 71 -48 62 l-16 0 l0 -146 q-6 -34 33 -31 l0 -6 l-90 0 Z" /><glyph glyph-name="" unicode="v" d="M92 -9 l-55 156 q-11 31 -36 31 l0 8 l90 0 l0 -8 q-25 0 -30 -6 q-6 -5 1 -24 l43 -126 l47 126 q7 18 2 24 q-4 6 -23 6 l0 8 l68 0 l0 -8 q-27 1 -37 -31 l-58 -156 l-12 0 Z" /><glyph glyph-name="" unicode="w" d="M55 152 l32 -124 l50 154 l12 0 l42 -151 l34 122 q11 27 -27 25 l0 8 l67 0 l0 -8 q-23 0 -31 -30 l-44 -157 l-12 0 l-43 154 l-51 -154 l-11 0 l-41 157 q-8 30 -29 30 l0 8 l83 0 l0 -8 q-43 3 -31 -26 Z" /><glyph glyph-name="" unicode="[" d="M68 194 l59 0 l0 -8 l-23 0 q-17 1 -16 -14 l0 -194 q-1 -16 16 -15 l23 0 l0 -7 l-59 0 l0 238 Z" /><glyph glyph-name="" unicode="\" d="M112 -5 l-100 191 l15 0 l100 -191 l-15 0 Z" /><glyph glyph-name="" unicode="]" d="M63 194 l0 -238 l-59 0 l0 7 l24 0 q17 -2 15 15 l0 194 q1 15 -15 14 l-24 0 l0 8 l59 0 Z" /><glyph glyph-name="" unicode="a" d="M102 77 l0 13 q0 34 -31 34 q-20 0 -28 -11 q-4 -5 0 -9 q3 -3 3 -8 q-1 -12 -14 -13 q-12 1 -13 15 q3 32 53 34 q52 -1 53 -42 l0 -73 q-1 -14 17 -12 l0 -7 q-5 0 -11 -2 q-3 0 -8 -1 q-4 -1 -8 -1 q-14 -1 -13 18 q-19 -20 -51 -21 q-39 1 -40 35 q0 47 91 51 ZM102 37 l0 31 q-68 -6 -67 -41 q1 -24 23 -25 q41 2 44 35 Z" /><glyph glyph-name="" unicode="b" d="M40 8 l-8 -14 l-9 0 q0 2 0 6 q2 14 2 29 l0 115 q2 28 -20 25 l0 8 l44 13 q-1 -21 -1 -50 l0 -29 q18 21 42 21 q58 -4 61 -71 q-1 -68 -63 -70 q-27 0 -48 17 ZM88 -1 q38 2 39 61 q-1 61 -39 64 q-39 -3 -41 -67 q1 -57 41 -58 Z" /><glyph glyph-name="" unicode="c" d="M126 31 l8 -6 q-23 -35 -58 -34 q-64 2 -66 70 q4 67 66 71 q50 -2 54 -35 q-1 -14 -14 -15 q-12 1 -13 12 q0 2 1 6 q-1 -2 1 2 q4 5 1 9 q-9 13 -30 13 q-40 -4 -42 -63 q1 -58 45 -60 q28 0 47 30 Z" /><glyph glyph-name="" unicode="d" d="M116 114 l0 34 q2 26 -19 23 l0 8 l44 11 q-2 -31 -2 -47 l0 -121 q-2 -22 17 -20 l0 -7 l-37 -2 l-1 17 q-17 -19 -45 -19 q-60 1 -61 67 q3 71 62 74 q27 0 42 -18 ZM76 -1 q40 1 41 61 q-1 62 -40 64 q-40 -2 -41 -66 q1 -58 40 -59 Z" /><glyph glyph-name="" unicode="e" d="M133 61 l-99 0 q0 -61 46 -61 q28 0 46 30 l8 -5 q-20 -33 -58 -34 q-64 2 -66 67 q2 71 62 74 q60 -1 61 -71 ZM34 71 l76 0 q0 53 -39 53 q-37 -1 -37 -53 Z" /><glyph glyph-name="" unicode="f" d="M6 -5 l0 6 q27 -2 24 28 l0 88 l-24 0 l0 9 l24 0 l0 23 q1 39 43 41 q38 -1 40 -28 q-1 -13 -14 -14 q-11 1 -12 11 q0 5 2 7 q3 5 1 8 q-5 8 -16 8 q-20 -1 -21 -28 l0 -28 l40 0 l0 -9 l-40 0 l0 -88 q-3 -30 28 -28 l0 -6 l-75 0 Z" /><glyph glyph-name="" unicode="g" d="M133 117 l-23 0 q13 -14 13 -33 q-1 -46 -53 -48 q-13 0 -25 4 q-10 -6 -10 -14 q0 -9 11 -9 q21 -2 36 -1 q54 1 55 -30 q-1 -43 -69 -44 q-59 0 -59 31 q0 14 20 23 q-18 6 -18 20 q-1 16 25 28 q-23 13 -23 38 q2 49 55 50 q19 0 29 -5 l36 0 l0 -10 ZM70 -5 l-30 0 q-6 -8 -7 -17 q0 -28 38 -28 q40 1 42 25 q1 20 -43 20 ZM68 44 q30 1 31 39 q-1 40 -31 41 q-30 -1 -31 -41 q1 -38 31 -39 Z" /><glyph glyph-name="" unicode="h" d="M6 -5 l0 6 q22 -2 20 28 l0 116 q2 27 -20 25 l0 8 l44 12 q-1 -26 -1 -52 l0 -39 q20 32 54 33 q43 -1 44 -46 l0 -57 q-2 -30 20 -28 l0 -6 l-63 0 l0 6 q22 -3 20 28 l0 56 q0 34 -28 34 q-38 -5 -47 -47 l0 -43 q-2 -30 19 -28 l0 -6 l-62 0 Z" /><glyph glyph-name="" unicode="i" d="M5 -5 l0 6 q30 -2 27 28 l0 57 q2 25 -20 23 l0 8 l44 10 q-1 -20 -1 -45 l0 -53 q-3 -30 27 -28 l0 -6 l-77 0 ZM44 158 q-16 1 -17 16 q1 15 17 16 q16 -2 17 -16 q-1 -15 -17 -16 Z" /><glyph glyph-name="" unicode="j" d="M44 158 q-16 1 -17 16 q1 15 17 16 q16 -2 17 -16 q-1 -15 -17 -16 ZM11 109 l0 8 l45 10 q-2 -36 -2 -48 l0 -90 q-1 -46 -41 -47 q-29 2 -31 27 q1 14 13 15 q10 -1 11 -13 q0 -5 -2 -8 q-3 -3 -1 -6 q4 -7 12 -7 q17 0 17 29 l0 104 q2 29 -21 26 Z" /><glyph glyph-name="" unicode="k" d="M68 -5 l-63 0 l0 6 q22 -1 20 27 l0 119 q2 27 -19 24 l0 8 l43 11 q-1 -21 -1 -46 l0 -95 l49 54 q7 9 3 13 q-4 4 -21 4 l0 9 l69 0 l0 -9 q-24 0 -42 -21 l-17 -19 l31 -55 q13 -24 35 -24 l0 -6 l-43 0 l-39 68 l-25 -29 q-2 -36 20 -33 l0 -6 Z" /><glyph glyph-name="" unicode="l" d="M5 -5 l0 6 q31 -2 28 29 l0 114 q2 28 -21 25 l0 8 l45 13 q0 -4 -1 -11 q-1 -18 -1 -39 l0 -110 q-3 -31 28 -29 l0 -6 l-78 0 Z" /><glyph glyph-name="" unicode="m" d="M6 -5 l0 6 q22 -2 20 27 l0 59 q2 28 -20 25 l0 9 l42 10 l0 -30 q21 30 50 30 q31 -1 37 -31 q20 31 49 31 q40 -1 41 -45 l0 -58 q-2 -29 19 -27 l0 -6 l-60 0 l0 6 q20 -2 18 27 l0 56 q0 34 -26 34 q-32 -4 -40 -42 l0 -49 q-2 -28 20 -26 l0 -6 l-62 0 l0 6 q22 -2 20 26 l0 57 q0 33 -24 34 q-34 -4 -42 -44 l0 -46 q-2 -29 20 -27 l0 -6 l-62 0 Z" /><glyph glyph-name="" unicode="n" d="M6 -5 l0 6 q21 -1 20 27 l0 60 q2 27 -20 24 l0 9 l42 11 l0 -34 q22 33 55 34 q43 -1 44 -46 l0 -58 q-2 -29 20 -27 l0 -6 l-62 0 l0 6 q21 -2 19 27 l0 56 q0 36 -29 35 q-35 -6 -47 -46 l0 -45 q-2 -29 18 -27 l0 -6 l-60 0 Z" /><glyph glyph-name="" unicode="o" d="M78 -9 q-67 1 -68 69 q3 69 68 72 q65 -3 67 -72 q-1 -68 -67 -69 ZM78 -1 q42 1 43 61 q-1 63 -43 64 q-43 -2 -44 -64 q0 -60 44 -61 Z" /><glyph glyph-name="" unicode="p" d="M88 0 q42 0 42 60 q-1 61 -42 63 q-39 -3 -41 -65 q1 -56 41 -58 ZM48 132 l0 -24 q20 24 46 24 q56 -5 59 -71 q-1 -68 -63 -70 q-25 0 -42 19 l0 -28 q-2 -36 20 -32 l0 -8 l-63 0 l0 8 q22 -4 20 32 l0 106 q2 28 -19 25 l0 9 l42 10 Z" /><glyph glyph-name="" unicode="q" d="M76 0 q39 1 40 60 q-1 61 -40 64 q-38 -3 -40 -64 q1 -59 40 -60 ZM158 -58 l-63 0 l0 8 q22 -4 20 32 l0 28 q-16 -19 -43 -19 q-59 2 -60 69 q3 68 64 72 q23 0 42 -19 l13 18 l9 0 q-2 -28 -2 -36 l0 -113 q-2 -36 20 -32 l0 -8 Z" /><glyph glyph-name="" unicode="r" d="M5 -5 l0 6 q28 -2 25 27 l0 62 q2 26 -20 23 l0 9 l43 10 l0 -28 q20 28 47 28 q17 -1 18 -15 q0 -15 -15 -15 q-11 1 -12 9 q0 0 0 1 q1 2 1 3 q1 3 -2 3 q-28 -6 -37 -39 l0 -51 q-3 -29 27 -27 l0 -6 l-75 0 Z" /><glyph glyph-name="" unicode="s" d="M98 131 l4 -45 l-9 -1 q-8 40 -38 39 q-26 -1 -27 -22 q-2 -19 33 -30 q48 -14 47 -45 q0 -36 -49 -36 q-13 0 -33 6 l-11 -2 l-4 45 l9 2 q10 -46 39 -43 q30 1 31 23 q1 20 -40 32 q-42 10 -40 43 q2 34 47 35 q15 0 27 -4 l14 3 Z" /><glyph glyph-name="" unicode="t" d="M25 19 l0 100 l-20 0 l0 9 q31 -3 34 44 l9 0 l0 -44 l36 0 l0 -9 l-36 0 l0 -95 q0 -21 15 -21 q12 0 23 10 l5 -8 q-18 -14 -37 -14 q-29 0 -29 28 Z" /><glyph glyph-name="" unicode="u" d="M21 32 l0 61 q2 25 -17 22 l0 9 l41 8 q0 -2 0 -5 q-2 -27 -2 -34 l0 -55 q0 -35 26 -35 q44 4 50 46 l0 43 q2 25 -17 22 l0 9 l41 9 q0 -1 0 -3 q-2 -20 -2 -37 l0 -72 q-1 -20 16 -19 l0 -6 l-37 -2 l-1 26 q-22 -27 -59 -28 q-39 0 -39 41 Z" /><glyph glyph-name="" unicode="v" d="M68 -9 l-40 108 q-8 21 -26 21 l0 9 l72 0 l0 -9 q-19 0 -23 -4 q-4 -4 1 -17 l29 -81 l31 84 q9 19 -21 18 l0 9 l59 0 l0 -9 q-21 0 -32 -28 l-38 -101 l-12 0 Z" /><glyph glyph-name="" unicode="w" d="M57 -9 l-31 102 q-8 27 -25 27 l0 9 l71 0 l0 -9 q-34 3 -23 -23 l21 -74 l35 101 l12 0 l34 -99 l21 76 q8 20 -21 19 l0 9 l59 0 l0 -9 q-23 1 -30 -25 l-29 -104 l-12 0 l-36 100 l-34 -100 l-12 0 Z" /><glyph glyph-name="" unicode="x" d="M2 -5 l0 6 q18 2 29 17 l31 39 l-29 45 q-11 17 -28 18 l0 9 l69 0 l0 -9 q-16 0 -19 -3 q-4 -3 2 -11 l20 -30 l24 30 q6 7 2 11 q-4 3 -18 3 l0 9 l57 0 l0 -9 q-18 0 -31 -16 l-29 -36 l31 -48 q14 -19 32 -19 l0 -6 l-73 0 l0 6 q15 0 19 4 q4 3 -2 12 l-21 32 l-27 -33 q-6 -9 -2 -12 q4 -3 21 -3 l0 -6 l-58 0 Z" /><glyph glyph-name="" unicode="y" d="M95 129 l54 0 l0 -9 q-14 -1 -24 -19 l-43 -103 q-23 -59 -47 -56 q-16 1 -17 14 q1 13 13 14 q13 -1 13 -10 q0 -2 1 -3 q2 0 3 1 q11 11 21 34 l-46 106 q-8 20 -22 22 l0 9 l63 0 l0 -9 q-18 0 -20 -3 q-4 -2 2 -15 l35 -83 l35 85 q11 18 -21 16 l0 9 Z" /><glyph glyph-name="" unicode="z" d="M11 -5 l0 6 l84 118 l-33 0 q-28 5 -38 -43 l-8 2 l5 51 l101 0 l0 -9 l-84 -118 l38 0 q30 -5 40 47 l9 -2 l-6 -52 l-108 0 Z" /><glyph glyph-name="" unicode="{" d="M110 -37 l17 0 l0 -7 l-18 0 q-36 -1 -36 37 l0 46 q0 28 -18 30 l0 7 q18 3 18 30 l0 51 q0 37 36 37 l18 0 l0 -8 l-17 0 q-17 0 -17 -17 l0 -57 q0 -31 -24 -39 q24 -8 24 -40 l0 -53 q0 -18 17 -17 Z" /><glyph glyph-name="" unicode="|" d="M76 -44 l-21 0 l0 234 l21 0 l0 -234 Z" /><glyph glyph-name="" unicode="}" d="M38 -20 l0 53 q0 32 24 40 q-24 8 -24 39 l0 57 q0 17 -16 17 l-18 0 l0 8 l18 0 q36 0 36 -37 l0 -51 q0 -27 18 -30 l0 -7 q-18 -2 -18 -30 l0 -46 q0 -38 -36 -37 l-18 0 l0 7 l18 0 q16 -1 16 17 Z" /><glyph glyph-name="" unicode="×" d="M193 19 l-65 63 l-65 -62 l-8 8 l65 62 l-64 62 l8 8 l64 -62 l65 62 l8 -8 l-65 -62 l65 -63 l-8 -8 Z" /><glyph glyph-name="" unicode="&#x300c;" d="M122 -24 l0 230 l67 0 l0 -10 l-56 0 l0 -220 l-11 0 Z" /><glyph glyph-name="" unicode="&#x300d;" d="M67 -24 l0 9 l55 0 l0 221 l12 0 l0 -230 l-67 0 Z" /><glyph glyph-name="" unicode="&#x4e00;" d="M22 87 l-10 16 q27 0 44 0 l123 5 q35 3 50 6 q10 -10 15 -15 q2 -3 2 -4 q-1 -1 -4 -1 q-34 0 -44 -1 l-137 -4 q-15 0 -39 -2 Z" /><glyph glyph-name="" unicode="&#x4e0d;" d="M14 33 l-3 3 q66 55 106 116 q7 12 10 17 l-64 -2 q-15 0 -34 -2 l-11 14 q24 0 41 0 l115 6 q35 3 50 5 q9 -8 14 -14 q2 -2 1 -2 q-1 -1 -4 -1 q-8 0 -28 -1 q-17 0 -23 0 l-44 -2 q2 -1 5 -4 q3 -3 5 -4 q3 -4 0 -6 q-3 -2 -9 -9 q-3 -5 -5 -7 q-6 -7 -12 -15 q6 -3 11 -5 q1 -1 1 -3 q0 -4 0 -14 q-1 -12 -1 -17 q0 -36 0 -102 q0 -4 -3 -5 q-5 -3 -17 -8 q-2 -1 -3 0 q0 0 0 2 q0 23 1 55 q0 37 1 60 q0 12 -1 24 q-37 -43 -99 -79 ZM230 35 q-23 31 -81 74 l2 5 q49 -19 82 -39 q9 -6 5 -18 q-1 -6 -7 -20 q-1 -1 -1 -2 Z" /><glyph glyph-name="" unicode="&#x4e28;" d="M116 -29 q-2 -1 -2 0 q-1 0 -1 2 q2 44 3 152 q1 27 1 39 q0 7 -1 21 q0 12 0 18 q0 3 0 3 q1 0 3 -1 q5 -1 15 -5 q3 -2 4 -2 q0 0 1 -1 q1 0 1 -3 q-1 -5 -1 -15 q-1 -11 -1 -16 q0 -26 0 -87 q-1 -64 -1 -92 q0 -4 -2 -6 q-12 -6 -19 -7 Z" /><glyph glyph-name="" unicode="&#x4e2d;" d="M33 38 q-5 -1 -4 3 q1 28 1 85 q0 24 -1 34 q0 3 1 3 q0 1 3 -1 q2 -1 9 -5 q6 -3 8 -5 l67 2 l0 16 q0 24 -1 38 q0 2 0 3 q1 0 3 -1 q13 -3 19 -8 q3 -1 2 -3 q-1 -9 -1 -30 q0 -7 0 -14 l61 2 q3 0 5 4 q1 1 1 6 q0 2 1 2 q1 1 3 -1 q5 -4 16 -12 q3 -2 4 -3 q3 -2 3 -3 q0 -1 -3 -3 q-3 -3 -3 -7 q-1 -39 0 -80 q1 -3 -2 -5 q0 0 -2 -1 q-10 -5 -14 -7 q-3 -1 -3 0 q-1 0 -1 2 l0 14 q-23 0 -34 -1 l-32 -1 q0 -43 0 -78 q0 -6 -2 -6 q-3 -2 -12 -6 q-4 -1 -5 -2 q-4 -1 -4 2 q1 16 1 35 q0 18 0 55 l-66 -2 l0 -7 q0 -6 -2 -6 q-2 -1 -8 -4 q-5 -3 -8 -4 ZM205 146 l-66 -2 l0 -72 l29 1 q1 0 4 0 q19 2 27 4 q3 -3 6 -6 l0 75 ZM51 141 l0 -71 l66 2 q1 17 0 49 q0 15 0 22 l-66 -2 Z" /><glyph glyph-name="" unicode="&#x4e3a;" d="M20 -28 l-4 4 q80 52 95 145 l-41 -2 q-21 0 -36 -3 l-10 14 q7 0 22 1 q15 0 21 0 l46 2 q4 21 7 45 q1 15 1 28 q0 3 1 3 q0 1 3 0 q12 -5 18 -9 q3 -1 1 -5 q0 -8 -3 -20 q-1 -11 -4 -29 q-1 -8 -2 -12 l63 3 q4 0 7 5 q0 1 1 3 q0 2 0 3 q1 4 2 4 q1 0 3 -2 q16 -14 20 -18 q2 -2 2 -3 q0 -2 -4 -3 q-5 -2 -6 -8 q-2 -38 -6 -74 q-3 -40 -21 -50 q-12 -11 -20 -21 q-6 -6 -9 -5 q-3 3 0 11 q6 13 0 18 q-7 3 -40 25 l2 4 l53 -21 q18 21 21 120 l-70 -3 q-15 -108 -113 -150 ZM165 41 q-12 26 -37 57 l3 3 q32 -17 43 -29 q7 -5 2 -13 q-2 -6 -11 -18 ZM81 135 q-8 23 -35 55 l3 4 q28 -15 43 -28 q6 -5 1 -13 q-2 -6 -12 -18 Z" /><glyph glyph-name="" unicode="&#x4e50;" d="M36 73 l-10 16 q16 4 17 11 l18 57 q7 20 8 30 q1 3 4 0 q3 -2 8 -7 q6 -6 9 -8 q38 6 93 21 q2 1 7 2 q7 3 9 4 q4 3 7 -1 q9 -9 14 -16 q1 -2 1 -3 q-1 -1 -3 -1 q-5 0 -16 -1 q-4 -1 -6 -1 q-62 -11 -111 -12 l-19 -60 q-1 -2 -2 -5 q-2 -4 -5 -8 l70 3 l0 31 q0 16 -1 22 q0 2 1 3 q0 0 3 -1 q1 0 3 -1 q9 -3 12 -6 q4 0 3 -5 l0 -17 l0 -25 l37 2 q30 3 37 5 q4 -2 10 -10 q1 -1 2 -2 q2 -1 2 -2 q-1 -1 -4 -1 q-22 0 -36 -1 l-48 -3 q0 -13 -1 -37 q0 -30 -1 -35 q-1 -18 -8 -24 q-2 -3 -6 -7 q-5 -5 -7 -8 q-4 -5 -7 -5 q-3 2 -1 8 q4 11 -2 15 q-7 4 -32 17 q-4 2 -6 3 l2 3 l44 -12 q4 21 4 81 l-68 -3 q-13 -1 -25 -6 ZM13 -18 l-4 4 q29 27 49 61 q6 9 9 18 q2 4 6 1 q2 -1 5 -4 q8 -7 10 -8 q3 -4 0 -6 q-4 -4 -10 -11 q-27 -30 -65 -55 ZM222 -11 q-13 27 -47 74 l4 3 q42 -30 56 -46 q6 -7 1 -15 q-5 -6 -14 -16 Z" /><glyph glyph-name="" unicode="&#x4e91;" d="M42 -8 l-9 18 q12 1 18 9 q32 39 48 65 q1 1 2 3 q6 9 9 17 l-55 -2 q-20 0 -37 -2 l-10 14 q6 0 24 1 q15 0 20 0 l126 5 q33 0 55 5 q6 -5 13 -14 q2 -2 1 -3 q0 -1 -3 -1 q-11 1 -41 0 q-10 0 -13 0 l-69 -2 q2 -2 7 -6 q3 -2 4 -3 q3 -2 -1 -5 q-3 -4 -15 -18 q-26 -34 -57 -61 l124 9 q-15 21 -34 46 l4 3 q48 -35 67 -57 q7 -6 1 -13 q-5 -11 -13 -18 q-7 13 -19 29 l-125 -12 q-1 0 -3 -1 q-13 -2 -19 -6 ZM45 168 l-10 13 q6 0 20 1 q13 0 18 0 l88 4 q2 0 7 1 q27 1 37 4 q10 -10 12 -13 q2 -2 2 -3 q0 -1 -3 -1 q-22 0 -42 0 l-97 -4 q-4 -1 -16 -1 q-11 -1 -16 -1 Z" /><glyph glyph-name="" unicode="&#x4eab;" d="M24 26 l-9 12 q33 0 44 1 l64 2 q0 4 0 9 q0 5 -1 8 q-1 2 0 3 q1 1 3 0 q1 0 3 -1 q6 -1 8 -3 l34 21 l-85 -5 q-15 0 -29 -3 l-9 12 q26 0 33 1 l91 5 q1 0 4 1 q6 0 8 2 q6 2 8 5 q3 3 5 1 q9 -7 15 -15 q3 -3 3 -4 q-1 -1 -6 -1 q-7 1 -12 -2 q-22 -10 -54 -21 q0 -1 1 -3 q0 -4 0 -9 l44 3 q27 1 46 5 q10 -10 13 -12 q2 -2 1 -3 q0 -1 -3 -1 q-33 0 -46 -1 l-55 -2 q0 -12 0 -23 q-1 -18 -7 -22 q-2 -2 -4 -4 q-6 -5 -9 -10 q-4 -5 -7 -4 q-2 2 -1 8 q2 9 -4 10 q-16 8 -40 14 l2 5 l47 -7 q3 5 3 32 l-61 -2 q-22 -2 -38 -2 ZM61 90 q-2 -1 -2 0 q-1 0 -1 2 q0 4 0 17 q1 14 1 19 q0 14 -1 23 q0 2 1 3 q1 0 2 -1 q2 -1 7 -3 q4 -3 6 -4 l102 6 q4 0 4 3 q1 1 1 2 q1 2 1 3 q0 2 1 3 q1 0 2 -1 q3 -2 8 -6 q4 -3 12 -9 q3 -2 3 -3 q0 -2 -4 -3 q-4 -1 -4 -7 l0 -23 q0 -4 -2 -5 q-5 -3 -14 -7 q-4 -1 -4 2 l0 5 q-3 0 -14 0 q-11 -1 -15 -1 l-73 -4 q0 -1 -1 -2 q0 -1 -1 -2 q-4 -2 -15 -7 ZM22 161 l-10 11 q8 0 26 1 q13 0 18 0 l69 3 q-5 11 -20 32 l3 3 q27 -12 37 -20 q7 -3 1 -10 q-2 -2 -4 -4 l42 2 q27 1 46 5 q9 -7 13 -12 q2 -1 2 -2 q-1 -1 -4 -1 q-31 0 -46 -1 l-135 -5 q-20 0 -38 -2 ZM180 142 l-102 -6 l0 -25 l64 3 q26 2 34 4 q3 -3 4 -4 l0 28 Z" /><glyph glyph-name="" unicode="&#x4ef7;" d="M47 -28 q-2 -1 -2 0 q-1 0 -1 2 q0 3 0 9 q3 96 3 136 q-14 -22 -37 -43 l-3 3 q33 51 52 103 q5 13 8 24 q1 3 2 3 q1 0 4 -2 q1 -1 5 -4 q8 -5 10 -7 q4 -3 1 -7 q-3 -4 -9 -15 q-2 -3 -3 -5 q-9 -17 -18 -32 q5 -1 6 -3 q3 -1 2 -3 q-1 -25 -3 -104 q-1 -32 -1 -43 q0 -4 -1 -5 q-6 -5 -15 -7 ZM220 99 q-28 19 -63 73 q-36 -51 -82 -82 l-3 3 q42 43 68 90 q3 5 9 16 q1 4 2 5 q1 2 1 2 q1 1 4 -1 q8 -6 14 -12 q3 -3 0 -4 q-2 -4 -8 -11 q46 -51 90 -64 l-1 -4 q-10 -3 -24 -11 q-4 -3 -7 0 ZM174 -28 q-3 -1 -3 2 q1 28 1 112 q0 4 0 14 q-1 11 -1 16 q0 3 3 2 q3 -2 9 -5 q6 -2 7 -3 q3 -1 2 -4 q-1 -11 -1 -23 q0 -51 0 -99 q0 -5 -2 -5 q-6 -4 -15 -7 ZM73 -26 l-3 3 q28 23 35 42 q9 20 9 65 q0 14 -1 30 q0 4 1 4 q1 0 4 -1 q11 -5 15 -7 q1 -1 1 -4 q0 -12 -1 -23 q0 -49 -12 -69 q-11 -21 -48 -40 Z" /><glyph glyph-name="" unicode="&#x4f8b;" d="M86 165 l-9 10 q5 0 16 1 q10 0 15 1 l28 2 q17 1 29 5 q3 -3 8 -8 q2 -1 3 -2 q3 -3 -1 -4 q-23 0 -29 -1 l-30 -2 q4 -2 7 -5 q3 -1 0 -5 q-1 -3 -4 -9 q-1 -2 -2 -4 q-3 -9 -6 -16 l25 2 q6 0 8 4 q1 1 1 2 q1 2 1 3 q0 2 1 3 q1 0 2 -2 q4 -4 10 -9 q4 -4 5 -5 q3 -3 3 -4 q0 -1 -4 -3 q-4 1 -5 -5 q-17 -93 -95 -136 l-3 3 q69 58 81 139 l-36 -3 q-5 -11 -11 -22 q19 -8 25 -14 q4 -3 1 -10 q-3 -6 -9 -15 q-7 15 -20 34 q-12 -19 -26 -34 l-3 3 q25 47 38 91 q1 4 3 12 q1 3 1 4 q-3 0 -9 0 q-6 -1 -9 -1 ZM38 -30 q-2 -1 -3 0 q0 0 0 2 q1 18 2 78 q1 47 1 65 q-13 -19 -31 -35 l-3 2 q29 45 52 102 q5 12 8 24 q1 4 1 4 q1 1 4 -2 q1 -1 5 -4 q8 -5 10 -7 q3 -3 0 -6 q1 0 0 -1 q-1 -2 -3 -5 q-6 -10 -9 -15 q-11 -24 -23 -40 q3 -1 6 -3 q1 -1 1 -4 q0 -11 -1 -41 q-2 -78 -3 -102 q0 -3 -1 -4 q-2 -2 -8 -5 q-4 -2 -5 -3 ZM211 -28 q-3 -5 -6 -4 q-3 2 -1 7 q4 13 -2 16 q-4 4 -25 15 q-12 6 -16 9 l2 3 l47 -16 q2 8 3 52 q1 40 1 130 q0 3 0 10 q-1 8 -1 12 q-1 2 0 2 q0 1 3 0 q8 -3 13 -7 q4 0 3 -5 q-1 -8 0 -17 q0 -150 -1 -163 q1 -21 -7 -27 q-8 -9 -13 -17 ZM176 39 q-2 -1 -2 2 q0 45 0 86 q0 14 0 28 q0 3 0 3 q1 1 3 0 q8 -3 13 -7 q3 -1 2 -4 q-1 -7 -1 -22 q0 -36 0 -73 q0 -6 -2 -6 q-5 -3 -13 -7 Z" /><glyph glyph-name="" unicode="&#x503c;" d="M95 164 l-11 12 q9 0 27 1 q9 0 11 0 l28 2 q0 3 1 6 q0 3 0 11 q1 8 1 12 q0 2 1 2 q0 1 3 -1 q9 -2 15 -7 q4 -2 2 -5 q0 -1 -2 -6 q-1 -5 -2 -9 q0 -1 0 -2 l18 1 q20 2 35 5 q10 -8 12 -10 q2 -2 2 -3 q0 -1 -3 -1 q-23 0 -38 -1 l-28 -2 q-2 -9 -6 -25 q-1 -3 -1 -5 l31 2 q4 0 4 4 q1 1 1 5 q0 3 1 3 q1 1 3 -1 q3 -2 9 -8 q8 -6 10 -8 q2 -2 2 -3 q0 -1 -3 -2 q-3 -2 -3 -7 l0 -124 q9 0 17 2 q3 -2 9 -6 q4 -3 5 -4 q1 -2 1 -3 q-1 -1 -4 -1 q-31 0 -40 -1 l-94 -2 q-10 0 -31 -2 l-11 12 q5 0 18 1 q10 0 14 0 l1 122 q0 19 -1 26 q0 2 1 2 q0 1 2 0 q6 -3 15 -9 l28 1 q0 1 0 3 q1 11 4 27 l-24 -1 q-4 0 -24 -2 q-4 -1 -6 -1 ZM123 22 l-4 5 l0 -31 l72 3 q3 0 4 0 l0 131 l-75 -3 l-1 -25 q6 1 15 1 l20 1 q1 0 5 1 q11 1 16 3 q2 -2 5 -5 q3 -3 4 -5 q1 -3 -1 -3 q-13 0 -23 -1 l-23 -1 q-2 0 -8 -1 q-5 0 -7 -1 l-3 3 l0 -25 q4 0 11 1 q3 0 4 0 l20 1 q1 0 2 0 q13 2 19 4 q3 -4 9 -10 q1 -3 -1 -3 q-1 0 -6 0 q-11 -1 -17 -1 l-23 -2 q-7 0 -15 -1 l-3 4 l0 -29 q4 0 11 1 q4 0 5 0 l20 1 q1 0 4 1 q11 1 17 3 q3 -4 9 -10 q1 -3 -1 -3 q-13 0 -23 -1 l-23 -1 q-2 0 -7 -1 q-5 0 -8 -1 ZM43 -30 q-3 -1 -3 2 q2 78 4 150 q-17 -26 -37 -44 l-3 3 q34 52 52 102 q3 6 7 18 q1 5 2 7 q1 3 1 3 q1 0 4 -2 q8 -6 14 -12 q3 -2 0 -5 q1 0 0 -1 q-1 -2 -4 -8 q-5 -8 -7 -12 q-2 -3 -5 -10 q-4 -7 -11 -19 q1 0 2 -1 q2 -1 2 -2 q3 -1 2 -4 q-1 -24 -3 -107 q-1 -34 -1 -46 q0 -3 -1 -4 q-3 -2 -12 -6 q-2 -2 -3 -2 Z" /><glyph glyph-name="" unicode="&#x5206;" d="M18 -28 l-3 3 q61 42 75 100 q1 3 2 10 q2 6 2 9 l-8 0 q-4 0 -14 -1 q-9 -1 -12 -1 l-8 12 q15 0 31 0 l81 4 q5 0 6 3 q3 3 3 7 q2 3 2 3 q1 1 3 -1 q8 -7 19 -18 q2 -2 2 -3 q0 -1 -3 -2 q-7 -4 -6 -9 q-5 -59 -10 -77 q-3 -12 -12 -17 q-7 -8 -15 -18 q-5 -7 -8 -5 q-2 2 -1 10 q5 14 -1 15 q-18 11 -39 23 l2 5 l47 -18 q11 14 16 92 l-65 -3 q7 -5 10 -7 q0 0 1 -1 q2 -1 1 -5 q0 -1 -1 -3 q-2 -5 -6 -16 q-21 -63 -91 -91 ZM233 87 q-3 -3 -7 0 q-38 27 -72 88 q-4 8 -15 26 q-1 1 -1 2 q-2 2 -1 3 q0 1 3 1 q10 -2 15 -2 q3 -1 3 -3 q2 -11 11 -25 q37 -54 85 -73 l-1 -5 q-9 -2 -20 -12 ZM11 78 l-3 3 q48 41 80 89 q3 5 7 13 q3 5 4 7 q1 3 1 3 q1 0 3 -2 q8 -6 15 -13 q2 -2 -1 -5 q-7 -7 -12 -15 q-43 -54 -94 -80 Z" /><glyph glyph-name="" unicode="&#x5229;" d="M18 118 l-10 11 q6 0 17 1 q8 0 11 0 l34 2 q1 24 1 41 q-19 -4 -50 -7 q-2 0 -3 0 l-2 4 q3 1 11 3 q55 16 69 24 q3 1 7 5 q2 1 3 2 q2 2 4 0 q0 1 1 0 q9 -9 15 -17 q2 -2 1 -2 q0 -1 -2 -2 q-2 0 -6 -1 q-7 -1 -11 -2 q-13 -3 -27 -5 q5 -3 8 -5 q1 -1 1 -3 q0 -16 -1 -34 l5 1 q17 0 35 4 q4 -3 11 -10 q1 -1 1 -2 q0 -1 -2 -1 q-4 0 -16 0 q-15 -1 -20 -1 l-14 -1 q0 -13 -1 -26 q22 -8 39 -16 q7 -4 5 -12 q-6 -15 -9 -20 q-13 20 -35 40 q0 -19 -1 -57 q0 -32 0 -46 q0 -3 -3 -6 q-2 -1 -10 -5 q-3 -1 -4 -2 q-4 -1 -3 3 q0 11 1 51 q2 40 2 61 q-24 -41 -62 -75 l-3 2 q36 50 59 106 l-25 -1 q-8 -2 -21 -2 ZM205 -28 q-4 -5 -7 -4 q-2 2 -1 8 q4 11 -1 14 q-5 4 -26 15 q-12 7 -16 10 l1 4 l48 -17 q3 10 4 62 q1 57 0 120 q0 11 -1 23 q0 3 4 2 q2 -1 6 -3 q3 -1 8 -4 q3 -1 3 -5 q0 -8 0 -18 q0 -33 -1 -127 q0 -34 0 -38 q0 -20 -8 -26 q-7 -7 -13 -16 ZM155 42 q-2 -1 -3 0 q0 0 0 2 q0 47 0 89 q0 14 0 28 q-1 2 0 3 q1 1 3 0 q11 -5 15 -7 q3 -1 2 -4 q-1 -7 -1 -22 q0 -39 0 -78 q1 -3 -2 -4 q-5 -3 -14 -7 Z" /><glyph glyph-name="" unicode="&#x529b;" d="M16 -27 l-4 4 q81 51 97 149 l-29 -2 q-16 0 -35 -2 l-10 13 q7 0 23 1 q14 0 19 0 l34 2 q3 19 5 41 q3 15 2 29 q0 2 1 2 q0 1 2 0 q7 -3 19 -9 q1 -1 1 -3 q0 -1 0 -2 q-1 -8 -3 -20 q-1 -6 -2 -16 q-2 -14 -3 -21 l60 3 q5 0 6 5 q2 2 2 6 q1 3 1 3 q1 1 4 -1 q4 -4 13 -12 q5 -5 7 -7 q2 -2 2 -3 q0 -1 -4 -3 q-5 -2 -6 -7 q-2 -41 -6 -79 q-3 -39 -21 -50 q-11 -10 -20 -20 q-6 -6 -9 -5 q-3 2 0 10 q6 14 0 18 q-5 4 -36 28 q-3 2 -4 3 l3 5 l51 -27 q17 16 22 124 l-67 -3 q-16 -113 -115 -154 Z" /><glyph glyph-name="" unicode="&#x52a0;" d="M205 -10 q-3 -1 -3 0 q-1 0 -1 3 l0 18 q-2 0 -6 0 q-4 -1 -6 -1 l-28 -1 l0 -13 q0 -5 -3 -6 q-5 -4 -13 -7 q-3 -1 -3 0 q-1 0 -1 2 q1 21 1 167 q0 16 -1 23 q0 2 0 3 q1 0 3 -1 q3 -2 10 -7 q4 -3 6 -4 l37 2 q4 0 4 4 q1 3 1 5 q1 3 2 3 q1 1 3 -1 q14 -12 18 -16 q3 -3 3 -4 q0 -1 -3 -2 q-4 -2 -4 -8 q-1 -20 -1 -147 q0 -2 -1 -4 q-6 -4 -14 -8 ZM5 -26 l-4 3 q51 56 52 166 l-10 0 q-2 -1 -11 -1 q-8 -1 -12 -1 l-9 12 q8 0 21 1 q6 0 7 0 l14 1 q1 14 1 29 q2 11 0 18 q0 2 1 3 q1 0 3 -1 q11 -5 15 -7 q3 0 2 -4 q-1 -3 -1 -16 q-1 -8 -1 -21 l23 1 q5 1 6 4 q1 3 1 7 q1 3 1 3 q1 0 4 -2 q11 -11 17 -17 q3 -4 0 -5 q-7 -2 -6 -8 q0 -14 -1 -45 q0 -33 -1 -42 q-2 -38 -12 -47 q-14 -12 -20 -20 q-5 -6 -7 -4 q-3 2 0 9 q5 10 -1 13 q-5 4 -23 16 l2 4 l33 -12 q7 11 9 36 q2 23 3 99 l-29 -2 q-4 -125 -67 -170 ZM202 157 l-41 -2 l0 -135 l24 2 q8 0 16 2 l1 133 Z" /><glyph glyph-name="" unicode="&#x52a8;" d="M108 -29 l-3 2 q47 63 53 158 l-7 -1 q-6 0 -24 -2 l-9 12 q8 0 21 1 q6 0 7 0 l13 1 q0 12 2 40 q-2 -19 0 6 q0 9 0 18 q0 2 1 3 q0 0 3 -1 q1 -1 5 -2 q7 -3 10 -5 q0 0 1 0 q1 -1 0 -4 q0 -2 0 -6 q-1 -7 -1 -11 q-2 -20 -2 -37 l31 2 q4 0 7 3 q1 3 1 7 q1 3 2 3 q0 0 2 -2 q15 -13 18 -18 q2 -1 2 -2 q0 -1 -3 -2 q-4 -2 -4 -8 q0 -58 -3 -84 q-1 -35 -16 -45 q-4 -4 -10 -9 q-8 -8 -11 -12 q-5 -5 -7 -4 q-3 1 0 8 q4 11 -2 16 q-9 6 -25 16 l2 4 l36 -14 q18 19 18 132 l-39 -2 q-9 -116 -69 -161 ZM112 7 q-3 12 -7 23 l-60 -17 q-15 -5 -22 -11 l-13 21 q13 1 18 13 q12 22 24 55 q3 7 6 17 l-11 0 q-14 -2 -25 -2 l-10 12 q27 0 32 1 l41 2 q1 0 3 0 q25 2 34 5 q1 -1 4 -4 q6 -5 7 -7 q1 -1 1 -2 q0 -1 -2 -1 q-5 0 -18 0 q-15 -1 -21 -1 l-23 -2 q7 -4 9 -7 q3 -1 1 -4 q-6 -8 -12 -17 q-13 -23 -35 -55 l69 10 q-7 19 -19 43 l4 2 q25 -22 39 -44 q6 -6 0 -14 q-5 -9 -14 -16 ZM34 166 l-10 12 q17 0 30 2 l22 2 q17 1 32 4 q4 -3 8 -8 q1 -1 2 -2 q1 -2 0 -2 q0 -1 -2 -1 q-3 0 -11 0 q-12 -1 -17 -1 l-31 -3 q-2 0 -8 -1 q-9 -1 -15 -2 Z" /><glyph glyph-name="" unicode="&#x5305;" d="M227 -13 q-18 -1 -67 -2 q-50 1 -68 2 q-34 3 -42 13 q-9 9 -9 44 q0 30 2 62 q0 7 0 16 q-14 -16 -32 -29 l-4 4 q33 37 54 88 q6 14 8 20 q0 4 6 1 q2 -1 6 -4 q8 -5 10 -7 q5 -2 0 -6 q-1 -2 -5 -8 q-3 -5 -5 -8 q-1 -1 -4 -5 q2 2 -1 -2 l112 6 q3 0 6 3 q2 4 2 8 q1 3 2 3 q0 1 2 -1 q13 -11 21 -19 q3 -4 -1 -5 q-8 -2 -7 -8 q-1 -16 -3 -49 q-1 -11 -1 -16 q-2 -26 -15 -36 q-1 -1 -2 -2 q-10 -7 -15 -13 q-4 -4 -7 -3 q-2 1 -1 7 q5 9 -3 13 q-13 7 -26 13 l0 -7 q1 -4 -2 -5 q-9 -6 -14 -7 q-2 -1 -3 0 q0 0 0 2 l0 13 q-2 0 -7 0 q-4 -1 -7 -1 l-45 -1 q0 -2 0 -6 q-1 -8 0 -11 q-6 -41 28 -40 q9 -2 49 -2 q50 -1 76 0 l12 53 l5 0 q0 -10 -1 -28 q0 -12 0 -16 q-1 -10 9 -11 q10 -1 11 -6 q0 -5 -24 -7 ZM68 154 q-7 -12 -16 -21 l12 -9 l53 2 q3 0 4 3 q1 3 1 6 q1 3 2 3 q1 0 3 -2 q4 -3 13 -10 q4 -4 6 -5 q3 -2 3 -4 q0 -1 -4 -2 q-6 -2 -5 -7 l0 -37 l1 1 l40 -9 q8 10 13 97 l-126 -6 ZM121 115 l-58 -2 q0 -9 -1 -24 q0 -12 0 -17 l42 1 q3 0 8 1 q6 0 9 1 l0 40 Z" /><glyph glyph-name="" unicode="&#x534e;" d="M95 124 l-2 4 q23 9 41 18 q0 23 0 39 q0 2 0 7 q1 9 0 15 q0 3 4 1 q3 -1 12 -5 q2 -2 3 -2 q1 -1 1 -3 q-1 -10 -1 -43 q20 9 33 17 q2 1 6 4 q13 9 17 13 q3 2 6 -1 q5 -4 13 -12 q3 -3 -2 -5 q-9 -3 -28 -12 q-24 -10 -45 -18 q-1 -7 0 -16 q0 -2 0 -2 q-1 -20 10 -20 q20 -2 54 0 l9 38 l3 0 q0 -6 1 -22 q0 -9 0 -11 q-1 -7 6 -9 q7 -2 7 -5 q0 -3 -13 -5 q-31 -5 -71 -2 q-27 0 -25 35 l0 12 q-19 -6 -39 -10 ZM118 -29 q-2 -1 -2 0 q-1 0 -1 2 q0 34 1 66 l-60 -2 q-18 0 -37 -2 l-9 13 q6 0 25 1 q15 0 19 0 l62 2 q0 4 0 7 q0 14 -1 29 q0 3 4 2 q4 -1 11 -5 q4 -1 6 -2 q1 -1 1 -4 q-1 -7 -1 -22 l0 -4 l31 1 q44 2 65 7 q9 -8 14 -14 q2 -2 1 -3 q0 -1 -2 -1 q-9 0 -32 -1 q-17 0 -22 0 l-55 -2 q0 -24 1 -57 q0 -2 -1 -3 q0 0 -1 -1 q-9 -5 -17 -7 ZM11 118 l-3 4 q38 33 64 67 q8 10 12 19 q2 2 2 2 q1 0 3 -2 q7 -6 13 -11 q2 -2 0 -5 q-1 0 -1 -1 q-7 -7 -15 -15 q-3 -4 -10 -10 q-3 -3 -5 -5 q5 -1 7 -3 q3 -1 2 -3 q-1 -15 -1 -73 q0 -2 -1 -3 q0 0 -1 -1 q-6 -3 -15 -6 q-2 -1 -2 -1 q-1 1 -1 2 q1 22 1 79 q-26 -22 -49 -34 Z" /><glyph glyph-name="" unicode="&#x53cb;" d="M49 -26 l-3 3 q54 29 81 55 q-16 22 -31 55 q-24 -58 -87 -104 l-3 3 q70 76 89 158 l-36 -1 q-18 0 -33 -2 l-10 13 q31 0 40 1 l42 1 q1 4 2 10 q2 7 2 10 q2 18 4 27 q0 3 1 3 q0 1 3 -1 q9 -3 17 -9 q2 -1 0 -4 q-3 -9 -5 -23 q-1 -6 -3 -12 l55 3 q2 0 5 0 q35 2 45 5 q10 -10 12 -13 q2 -1 2 -3 q-1 -1 -4 -1 q-8 1 -32 0 q-14 0 -21 0 l-65 -3 q-6 -20 -12 -38 l71 4 q8 1 9 4 q1 1 2 5 q1 1 1 2 q0 0 0 1 q1 2 4 0 q4 -4 12 -11 q5 -5 7 -7 q3 -3 3 -4 q-1 -2 -4 -2 q-6 -1 -10 -7 q-21 -37 -45 -61 q36 -27 88 -36 l-1 -5 q-23 -5 -32 -13 q-4 -3 -9 0 q-41 20 -61 41 q-34 -25 -90 -44 ZM177 100 l-77 -5 q-1 0 -1 -1 q17 -29 40 -51 q24 26 38 57 Z" /><glyph glyph-name="" unicode="&#x5409;" d="M191 -26 q-4 -1 -4 2 l0 23 q-14 0 -28 0 l-89 -2 l0 -11 q0 -6 -2 -6 q-6 -5 -16 -8 q-2 -1 -2 0 q-1 0 -1 2 q1 20 1 71 q0 23 -1 33 q0 2 1 3 q1 0 2 -1 q3 -1 10 -5 q5 -3 7 -4 l114 5 q4 0 4 3 q0 0 1 1 q1 2 1 5 q0 2 1 2 q1 1 3 -1 q5 -4 13 -10 q5 -5 7 -6 q2 -2 2 -3 q0 -2 -3 -3 q-4 -2 -4 -8 q-1 -16 0 -52 q0 -12 0 -17 q0 -4 -1 -5 q-11 -7 -16 -8 ZM41 100 l-10 12 q32 0 38 1 l47 1 l1 42 l-62 -3 q-11 0 -33 -2 l-10 13 q21 0 40 0 l65 3 l0 7 q0 13 0 33 q0 2 0 2 q1 1 3 0 q9 -3 17 -7 q3 -1 1 -3 q0 -4 -1 -14 q0 -9 0 -12 l0 -5 l44 2 q22 1 48 6 q9 -7 13 -13 q2 -1 2 -2 q-1 -1 -4 -1 q-5 0 -20 0 q-19 -1 -26 -1 l-57 -2 l0 -42 l27 1 q32 2 49 6 q7 -7 12 -12 q2 -2 1 -3 q0 -1 -2 -1 q-38 0 -51 -1 l-101 -3 q-4 -1 -15 -1 q-12 -1 -16 -1 ZM187 65 l-117 -5 l0 -54 l87 2 q11 0 25 2 q3 -3 5 -6 l0 61 Z" /><glyph glyph-name="" unicode="&#x542f;" d="M12 -28 l-3 3 q24 38 31 73 q8 34 8 102 q0 22 -1 28 q0 4 1 4 q0 0 3 -2 q4 -2 11 -7 q4 -3 6 -4 l65 3 q-6 17 -21 35 l3 3 q23 -9 34 -18 q6 -4 2 -10 q-5 -5 -10 -10 l53 2 q2 0 4 3 q0 0 0 2 q1 3 1 4 q1 3 1 3 q1 0 4 -2 q1 -1 4 -3 q7 -6 13 -12 q2 -2 2 -3 q0 -2 -3 -3 q-3 -1 -3 -6 l0 -49 q0 -2 -1 -3 q0 0 -1 -1 q-7 -5 -14 -7 q-3 -1 -3 0 q-1 0 -1 2 l0 9 q-6 1 -21 0 q-5 0 -8 0 l-101 -4 q-4 -91 -55 -132 ZM202 -19 q-2 -1 -3 -1 q-1 1 -1 3 l0 17 q-11 0 -21 0 l-84 -2 l0 -10 q0 -6 -2 -6 q-1 -1 -4 -2 q-2 -2 -10 -5 q-3 -1 -3 0 q-1 0 -1 2 q1 19 1 67 q0 15 0 30 q0 3 0 3 q1 1 3 0 q8 -4 15 -9 l102 3 q3 0 4 4 q1 2 1 6 q1 2 1 2 q1 1 4 -1 q10 -10 17 -15 q3 -3 3 -4 q0 -1 -3 -2 q-4 -3 -4 -7 l0 -62 q0 -4 -1 -4 q-9 -6 -14 -7 ZM69 158 q-1 -17 -1 -42 l97 4 q13 0 29 2 q2 -1 3 -4 l0 45 l-128 -5 ZM198 61 l-105 -4 l0 -51 l83 4 q10 0 22 1 l0 50 Z" /><glyph glyph-name="" unicode="&#x5728;" d="M8 39 l-5 4 q28 27 52 57 l0 14 q0 2 1 2 q0 1 2 0 q3 -1 8 -3 q12 17 22 33 l-18 -1 q-10 0 -33 -2 q16 2 -5 0 l-10 12 q7 0 25 1 q15 0 20 0 l29 2 q7 12 13 24 q9 18 12 27 q0 0 0 1 q1 4 4 0 q3 -2 12 -8 q3 -2 4 -3 q4 -3 1 -6 q-9 -15 -13 -21 q-3 -7 -8 -13 l58 3 q33 3 50 5 q10 -10 13 -12 q2 -2 2 -3 q-1 -1 -4 -1 q-36 0 -50 -1 l-76 -3 q-19 -28 -38 -49 q-2 -29 -2 -64 q-1 -34 0 -51 q1 -4 -2 -5 q-6 -4 -16 -7 q-1 -1 -2 -1 q-1 0 -1 2 q2 58 2 105 q-22 -21 -47 -38 ZM88 -6 l-10 11 q8 0 25 1 q12 0 15 0 l31 1 l0 64 l-20 -1 q-7 0 -27 -2 l-10 12 q5 0 17 1 q12 0 16 0 l24 1 l1 22 q0 14 -2 31 q0 2 1 3 q1 0 3 -1 q8 -2 17 -6 q1 0 1 -4 q0 -11 0 -23 l0 -21 l3 1 q20 0 39 4 q3 -2 8 -9 q2 -2 3 -3 q2 -2 1 -2 q0 -1 -2 -1 q-18 0 -37 -1 l-15 0 l0 -64 l19 0 q31 2 45 5 q1 -1 4 -4 q6 -7 8 -8 q2 -1 1 -1 q0 -1 -3 -1 q-20 0 -45 0 l-77 -3 q-15 0 -34 -2 Z" /><glyph glyph-name="" unicode="&#x5927;" d="M11 131 q25 0 43 0 l56 3 q2 15 3 33 q0 17 0 35 q0 3 0 3 q1 1 3 0 q13 -6 19 -9 q2 0 2 -6 q-2 -12 -2 -25 q0 -16 -2 -31 l42 2 q2 0 5 0 q38 2 51 6 q3 -4 13 -14 q1 -2 1 -3 q-1 -1 -3 -1 q-43 0 -54 -1 l-57 -2 q0 0 0 -1 q51 -99 118 -125 l-2 -5 q-18 -4 -32 -10 q-6 -2 -10 3 q-43 39 -76 124 q-15 -94 -116 -134 l-3 4 q89 55 99 143 l-52 -1 q-4 -1 -19 -2 q-14 -1 -18 -1 l-9 15 Z" /><glyph glyph-name="" unicode="&#x597d;" d="M115 142 q2 -2 2 -3 q0 0 -2 -1 q-4 -2 -4 -7 q-13 -54 -31 -86 q15 -7 24 -13 q7 -4 5 -13 q-1 -8 -5 -19 q-14 13 -34 30 q-19 -30 -60 -54 l-3 3 q31 30 50 61 q-8 6 -24 18 q-7 5 -10 7 q12 33 20 68 l-3 0 q-12 -2 -22 -2 l-9 11 q6 0 19 1 q8 0 10 0 l8 0 q2 7 5 22 q2 11 3 17 q0 2 1 5 q0 6 3 21 q0 2 0 3 q1 0 3 -1 q12 -7 16 -11 q3 -1 1 -5 q-1 -3 -2 -10 q-2 -5 -3 -9 q-1 -2 -2 -7 q-3 -9 -6 -24 l23 2 q4 0 5 4 q2 2 2 6 q1 4 5 1 q10 -10 15 -15 ZM107 97 q7 0 21 1 q11 0 15 0 l29 2 q0 8 0 15 q0 11 -1 25 q-1 2 0 2 q1 1 4 0 q2 -2 4 -2 l28 35 l-51 -3 q-10 0 -29 -3 l-9 12 q8 0 24 1 q8 0 9 0 l51 3 q1 0 4 1 q5 0 8 2 q4 2 7 6 q2 5 6 0 q3 -3 9 -9 q6 -6 7 -8 q3 -5 2 -6 q-1 -2 -6 -1 q-7 1 -11 -3 q-9 -7 -28 -20 q-9 -7 -14 -10 q2 -2 4 -2 q3 -1 2 -5 q0 -9 0 -19 q0 -6 0 -10 l15 0 q2 0 8 1 q17 1 26 3 q9 -7 12 -11 q2 -3 -1 -3 q-15 0 -32 0 l-27 -2 q0 -40 -2 -77 q-1 -19 -8 -23 q-7 -8 -13 -15 q-4 -5 -7 -3 q-2 2 -1 8 q4 11 -1 14 q-10 6 -39 15 l2 4 l45 -8 q3 17 3 85 l-26 -1 q-3 -1 -15 -1 q-8 -1 -14 -1 l-10 11 ZM35 67 q17 -8 29 -14 q18 33 27 83 l-30 -2 q-9 -34 -26 -67 Z" /><glyph glyph-name="" unicode="&#x5b95;" d="M12 19 l-4 4 q7 5 18 14 q24 18 34 26 q0 2 -1 6 q0 3 0 4 q0 5 3 3 q1 0 4 -2 q2 -1 3 -2 q14 12 37 39 l-26 -2 q-11 0 -38 -2 l-9 13 q9 -1 33 0 q8 0 11 0 l86 4 q1 0 5 0 q32 3 45 7 q6 -4 14 -12 q2 -2 2 -3 q0 -1 -3 -1 q-29 0 -47 -1 l-45 -2 q-23 -27 -46 -45 l93 4 q3 0 4 3 q1 1 1 4 q1 2 1 3 q0 3 1 3 q1 0 3 -2 q4 -3 10 -8 q7 -6 9 -8 q3 -2 3 -3 q0 -2 -3 -4 q-5 -1 -5 -7 q0 -36 0 -59 q0 -5 -3 -6 q-9 -6 -14 -7 q-3 -1 -3 0 q-1 0 -1 2 l1 20 l-106 -2 l0 -11 q0 -4 -3 -7 q-2 -2 -8 -4 q-5 -2 -7 -3 q-2 -1 -2 2 q1 23 1 62 q0 3 0 8 q-22 -15 -48 -28 ZM185 60 l-106 -5 l0 -46 l106 4 l0 47 ZM36 121 q-7 6 -13 14 q-7 5 -1 11 q12 13 23 37 l4 -2 q0 -6 -1 -14 q7 0 21 1 q10 0 14 0 l45 2 q-8 18 -25 38 l3 3 q28 -11 40 -23 q5 -4 -1 -10 q-1 -1 -3 -3 q-3 -2 -5 -4 l69 4 q7 0 11 2 q3 2 6 7 q2 5 6 0 q5 -6 16 -17 q3 -3 2 -5 q-1 -1 -6 -1 q-7 1 -11 -3 q-2 -1 -7 -5 q-17 -13 -24 -17 l-3 3 l15 25 l-125 -6 q-4 -1 -17 -1 q-12 -1 -18 -1 l-4 5 q-3 -23 -11 -40 Z" /><glyph glyph-name="" unicode="&#x5c06;" d="M61 -27 q1 39 3 104 q-21 -24 -39 -42 q-3 -3 -6 -1 q-4 3 -15 16 l60 38 q1 16 1 35 q0 16 0 46 q0 19 0 36 q0 2 0 3 q1 0 3 -1 q9 -3 17 -8 q1 0 1 -3 q0 -5 -1 -18 q0 -9 0 -11 q-1 -43 -2 -123 q-1 -41 -1 -60 q0 -6 -2 -6 q-9 -5 -16 -7 q-2 -1 -2 0 q-1 0 -1 2 ZM209 110 q0 0 1 0 q1 -1 1 -5 q0 -8 0 -16 l0 -4 q13 1 25 4 q2 -2 7 -6 q3 -3 4 -4 q2 -3 2 -4 q0 -1 -3 -1 q-24 0 -35 -1 q0 -51 -1 -61 q-1 -17 -8 -23 q-6 -7 -12 -16 q-3 -4 -6 -3 q-3 1 -2 6 q5 13 -1 15 q-6 3 -28 11 q-7 4 -11 5 l1 4 l44 -9 q4 4 5 70 l-65 -3 q3 -2 9 -7 q14 -10 18 -14 q6 -6 1 -13 q-3 -4 -11 -11 q-3 -3 -4 -4 q-6 21 -20 49 q-9 0 -22 -2 l-10 13 q7 -1 24 0 q5 0 7 0 l73 3 l0 7 q-1 10 -1 25 q-1 2 0 2 q1 0 3 -1 q12 -4 15 -6 ZM240 170 q2 -2 2 -4 q0 -1 -4 -2 q-4 -1 -8 -5 q-43 -53 -131 -76 l-1 4 q76 33 110 78 l-73 -4 l-5 -6 q2 -1 7 -2 q17 -6 21 -9 q6 -2 3 -10 q-3 -9 -9 -16 q-10 19 -27 33 q-15 -12 -27 -20 l-3 2 q25 28 41 55 q2 3 5 8 q3 6 4 8 q1 3 3 1 q10 -8 14 -12 q2 -3 0 -4 q-8 -8 -12 -13 q-3 -3 -4 -4 l61 4 q6 0 10 4 q4 4 4 6 q1 3 2 3 q1 0 3 -2 q3 -4 9 -11 q4 -5 5 -6 ZM11 166 l4 2 q23 -21 35 -36 q6 -6 0 -13 q-4 -7 -14 -15 q-8 30 -25 62 Z" /><glyph glyph-name="" unicode="&#x5df2;" d="M222 -10 q-29 -2 -81 -1 q-46 1 -62 3 q-49 0 -45 57 q0 54 3 92 q0 2 1 2 q0 1 3 0 q12 -6 16 -10 q1 0 1 -3 q0 -3 -1 -10 q0 -7 0 -9 q0 0 -1 -1 l117 4 l1 59 l-101 -3 q-5 -1 -17 -1 q-13 -1 -18 -1 l-9 12 q34 0 41 1 l99 3 q4 0 5 3 q1 3 1 7 q0 2 1 2 q1 1 3 -1 q1 0 2 -2 q15 -10 19 -14 q5 -4 0 -6 q-5 -3 -5 -7 q0 -35 -1 -69 q0 -3 -1 -5 q-1 0 -8 -4 q-6 -3 -9 -4 q-4 -1 -4 3 l1 16 l-117 -4 q0 -9 -1 -26 q0 -20 -1 -25 q-3 -38 26 -41 q10 -2 48 -4 q47 -1 73 0 l14 68 l6 -1 q0 -11 -1 -38 q-1 -15 -1 -18 q-1 -10 9 -12 q1 0 4 -1 q7 -1 7 -3 q1 -4 -17 -8 Z" /><glyph glyph-name="" unicode="&#x5e74;" d="M134 -29 q-3 -1 -3 2 q0 35 0 69 l-74 -2 q-16 0 -35 -2 l-10 12 q8 0 26 1 q13 0 16 0 l0 47 l0 26 q0 2 0 3 q1 0 3 -1 q6 -3 20 -13 l55 2 l0 7 q0 6 -1 18 q0 11 0 16 l-54 -2 q-29 -32 -58 -50 l-3 3 q36 37 55 70 q9 15 13 25 q1 4 5 1 q1 -1 3 -3 q10 -7 12 -10 q2 -2 -1 -5 q-7 -9 -15 -19 q-1 0 -1 -1 l92 5 q17 0 39 4 q2 -2 7 -7 q3 -2 4 -3 q2 -2 2 -3 q0 -1 -3 -1 q-4 0 -16 0 q-17 -1 -26 -1 l-47 -2 q8 -3 12 -6 q3 0 2 -3 q-1 -7 -1 -28 q0 -1 0 -4 l26 2 q16 0 40 4 q2 -2 7 -6 q4 -4 5 -5 q1 -1 1 -2 q-1 -1 -3 -1 q-27 0 -39 -1 l-37 -2 q0 -26 0 -50 l33 1 q3 0 11 1 q26 2 37 4 q4 -3 13 -12 q2 -1 2 -2 q-1 -1 -4 -2 q-9 1 -40 0 q-10 0 -13 0 l-39 -2 q0 -28 0 -59 q1 -5 -2 -6 q-6 -3 -16 -7 ZM132 54 l0 50 l-58 -2 l-1 -50 l59 2 Z" /><glyph glyph-name="" unicode="&#x60a8;" d="M10 103 l-2 3 q31 37 52 79 q7 10 10 22 q1 3 2 3 q1 0 4 -2 q2 -1 8 -6 q4 -4 6 -5 q2 -2 -1 -6 q-3 -4 -13 -18 q-6 -9 -12 -17 q3 -1 6 -3 q1 -1 1 -3 q-1 -25 -1 -75 q0 -4 -2 -5 q0 0 -1 0 q-3 -2 -13 -7 q-3 -1 -3 0 q-1 0 -1 2 q1 34 1 76 q-20 -24 -41 -38 ZM195 -20 q-86 -12 -115 25 q-11 16 -16 46 q-1 3 0 4 q1 1 4 0 q2 -1 5 -2 q8 -3 10 -4 q3 -1 3 -4 q8 -52 82 -53 l10 38 l5 -1 q0 -22 1 -29 q-1 -8 10 -10 q8 -1 8 -4 q0 -4 -7 -6 ZM86 123 l-4 2 q19 27 34 60 q3 9 2 6 q4 9 5 13 q1 4 4 1 q12 -8 14 -10 q4 -4 1 -6 q-6 -6 -9 -11 q0 0 0 -1 q-1 0 -1 -1 l67 3 q7 0 10 2 q3 3 6 6 q1 2 2 2 q0 1 2 -1 q5 -6 14 -15 q3 -3 2 -5 q-1 -2 -5 -1 q-7 0 -10 -3 q-2 -2 -6 -7 q-12 -12 -17 -16 l-3 2 l11 26 l-81 -4 q-17 -25 -38 -42 ZM155 60 q-4 -5 -7 -4 q-3 1 -2 7 q2 6 -4 10 q-7 3 -25 11 l1 4 l32 -5 q3 8 3 59 q0 11 -1 17 q0 2 0 2 q1 1 3 0 q5 -2 14 -5 q3 -1 2 -4 q1 -2 1 -8 q0 -6 0 -10 q0 -26 0 -37 q0 -20 -7 -24 q-3 -3 -7 -9 q-2 -3 -3 -4 ZM228 -6 q-16 22 -48 58 l3 4 q34 -18 53 -34 q6 -5 2 -14 q-3 -5 -9 -13 q-1 -1 -1 -1 ZM84 73 l-3 2 q17 21 31 47 q1 3 3 7 q2 5 3 7 q1 4 4 2 q10 -7 14 -8 q3 -3 1 -6 q-1 -1 -4 -4 q-2 -3 -4 -5 q-20 -25 -45 -42 ZM34 -17 q-5 3 -13 14 q-6 3 0 9 q15 21 25 48 l4 -2 q-5 -47 -16 -69 ZM216 74 q-8 23 -32 57 l3 2 q29 -21 40 -33 q6 -6 1 -11 q-3 -6 -12 -15 ZM143 12 q-18 26 -37 44 l2 4 q29 -11 40 -20 q7 -3 4 -12 q-2 -7 -9 -16 Z" /><glyph glyph-name="" unicode="&#x620a;" d="M69 -15 l-4 4 q58 29 87 56 q-21 41 -27 95 l-55 -3 q0 -71 -12 -101 q-9 -31 -46 -64 l-3 2 q25 35 33 66 q8 31 7 88 q0 20 -1 28 q0 3 1 3 q1 1 3 -1 q2 -1 5 -3 q7 -4 10 -6 l57 2 q-1 14 -1 27 q0 4 -1 13 q0 8 -1 12 q0 3 1 3 q0 1 3 -1 q9 -3 14 -7 q4 0 3 -7 q0 -27 1 -39 l38 2 q16 0 24 1 q-16 23 -36 40 l3 3 q31 -10 42 -19 q6 -2 2 -11 q-1 -1 -3 -4 q-2 -6 -4 -8 q16 2 21 3 q7 -5 12 -11 q2 -3 2 -3 q0 -1 -3 -1 q-5 0 -18 0 q-16 -1 -23 -1 l-55 -2 q5 -49 23 -82 q15 15 28 31 q2 3 5 7 q5 8 8 14 q1 2 2 2 q1 0 3 -2 q8 -8 12 -14 q3 -3 0 -5 q-1 -1 -4 -4 q-7 -7 -11 -11 q-16 -19 -34 -34 q18 -28 45 -45 l15 57 l6 -2 q-4 -42 -4 -53 q-1 -11 7 -16 q6 -6 6 -10 q-7 -5 -36 9 q-34 16 -55 47 q-29 -22 -92 -45 Z" /><glyph glyph-name="" unicode="&#x620c;" d="M70 -15 l-4 3 q50 26 90 59 q-20 39 -26 93 l-60 -3 q0 -31 -2 -55 l26 2 q1 0 4 0 q15 2 22 4 q3 -4 9 -10 q1 -1 1 -2 q0 -1 -2 -1 q-14 0 -26 -1 l-35 -2 q-5 -58 -55 -100 l-3 2 q25 35 33 66 q8 31 7 88 q0 20 -1 28 q0 3 1 3 q1 1 3 -1 q2 -1 5 -3 q7 -4 10 -6 l62 3 q0 4 0 12 q-1 9 -1 14 q0 5 -1 14 q0 8 0 11 q0 3 1 3 q0 1 3 -1 q1 -1 4 -2 q8 -4 10 -5 q3 0 2 -7 q0 -19 1 -39 l33 2 q3 0 11 0 q9 1 13 1 q-11 20 -35 40 l2 3 q30 -9 42 -19 q6 -2 2 -11 q-1 -1 -3 -4 q-2 -6 -4 -8 q16 2 21 3 q7 -5 12 -11 q2 -3 2 -3 q0 -1 -3 -1 q-5 0 -18 0 q-16 -1 -23 -1 l-50 -2 q4 -49 20 -81 q15 15 26 31 q1 1 2 3 q8 10 11 17 q1 3 2 3 q1 0 3 -2 q8 -8 12 -14 q3 -4 0 -6 q-1 -2 -6 -7 q-5 -5 -8 -8 q-16 -18 -33 -33 q17 -28 44 -44 l14 55 l6 -2 q-4 -42 -4 -53 q-1 -11 7 -16 q6 -6 6 -10 q-7 -6 -36 9 q-33 20 -52 50 q-33 -26 -94 -48 Z" /><glyph glyph-name="" unicode="&#x6210;" d="M91 13 q-4 -3 -6 -2 q-2 2 0 6 q5 11 0 13 q-7 5 -24 13 l2 4 l31 -7 q7 16 8 56 l-35 -2 q-1 -79 -55 -122 l-3 2 q24 35 32 67 q8 31 7 89 q0 20 -1 28 q0 3 1 3 q1 1 3 -1 q8 -4 14 -9 l80 3 q-1 12 -1 24 q0 13 0 25 q-1 3 0 3 q1 1 4 -1 q4 -1 13 -7 q4 0 3 -7 q0 -19 0 -36 l16 1 q3 0 11 0 q9 1 13 1 q-9 19 -29 37 l3 3 q25 -10 37 -20 q5 -3 2 -10 q-1 -1 -2 -4 q-2 -3 -3 -5 q11 1 17 4 q8 -7 12 -12 q2 -3 2 -3 q0 -1 -3 -1 q-5 0 -18 0 q-16 -1 -23 -1 l-35 -2 q3 -50 11 -80 q10 14 19 29 q7 14 11 21 q1 3 2 3 q1 0 2 -2 q5 -4 13 -12 q4 -4 1 -6 q-5 -6 -13 -16 q-13 -19 -28 -36 q12 -28 41 -46 l15 56 l5 -2 q-1 -11 -2 -33 q-2 -17 -2 -19 q-1 -11 7 -16 q1 -1 2 -2 q6 -7 4 -8 q-9 -7 -35 9 q-35 19 -49 47 q-27 -25 -80 -50 l-2 4 q49 32 75 62 q-13 33 -16 97 l-77 -4 q0 -18 0 -34 l30 2 q5 0 6 3 q1 1 1 3 q1 2 1 3 q0 3 1 4 q1 0 3 -2 q11 -11 17 -17 q3 -3 -1 -5 q-4 -1 -5 -8 q0 -3 -1 -9 q-1 -24 -3 -31 q-2 -14 -11 -22 q-6 -4 -15 -13 Z" /><glyph glyph-name="" unicode="&#x636e;" d="M121 86 l-3 3 q-5 -73 -45 -116 l-4 3 q20 37 27 80 q7 41 7 117 q0 4 0 12 q-1 8 -1 12 q-1 3 0 3 q1 1 4 -1 q2 -1 7 -4 q7 -5 9 -6 l83 4 q4 0 5 3 q0 1 0 2 q1 2 1 4 q1 3 1 3 q1 0 4 -2 q12 -10 16 -14 q3 -3 3 -4 q0 -1 -3 -2 q-4 -2 -4 -7 l0 -37 q1 -3 -2 -4 q-3 -2 -13 -7 q-2 -1 -3 0 q0 0 0 3 l0 6 l-89 -3 q0 -19 -2 -36 q23 0 28 1 l19 1 q0 14 0 31 q-1 2 0 2 q0 1 3 0 q3 -1 8 -3 q6 -3 8 -4 q1 -1 1 -3 q0 -4 -1 -13 q0 -7 0 -9 l11 1 q21 1 39 5 q4 -3 11 -10 q2 -2 2 -3 q-1 -1 -4 -1 q-4 -1 -17 -1 q-13 -1 -18 -1 l-24 -1 l0 -34 l23 2 q3 0 4 2 q-1 0 0 1 q2 3 2 6 q0 2 1 3 q1 0 2 -2 q14 -12 18 -15 q5 -4 0 -6 q-4 -2 -4 -7 q0 -30 1 -52 q0 -4 -2 -5 q-2 -2 -11 -7 q-2 -1 -3 -1 q-4 -1 -4 2 l0 20 q-9 0 -22 0 l-47 -2 l0 -9 q0 -4 -1 -6 q-2 -1 -7 -4 q-4 -2 -7 -3 q-3 -1 -3 0 q-1 0 -1 2 q1 20 1 59 q0 18 -1 27 q0 3 1 3 q0 0 3 -1 q9 -5 15 -9 l23 1 l0 34 l-15 0 q-3 -1 -15 -2 q-12 -1 -15 -1 ZM45 -24 q-6 -7 -9 -6 q-3 2 0 11 q4 10 -1 15 q-3 3 -18 13 q-5 5 -8 7 l2 3 l32 -13 q5 18 5 67 q-5 -3 -15 -9 q-6 -3 -8 -4 q-3 -2 -7 1 q-4 2 -12 15 l43 13 q0 26 0 51 l-12 -1 q-3 -1 -10 -1 q-7 -1 -10 -1 l-8 11 q20 0 26 1 l14 1 l0 23 q0 23 -1 32 q0 2 1 2 q0 1 3 0 q3 -2 9 -4 q4 -2 6 -3 q3 -1 2 -6 q-1 -10 0 -21 l0 -21 q5 0 14 2 q3 1 4 1 q4 -3 10 -9 q1 -1 1 -3 q-1 -1 -3 -1 q-10 0 -23 0 l-3 -1 q0 -7 0 -23 q-1 -15 -1 -23 l26 9 l2 -4 q-4 -3 -14 -8 q-9 -6 -14 -9 l0 -7 q0 -6 -1 -17 q0 -29 -2 -39 q-2 -23 -20 -44 ZM122 178 q0 -18 0 -34 l88 4 l0 35 l-88 -5 ZM212 48 l-68 -5 l-1 -40 l40 2 q15 0 26 2 q1 0 2 -2 q1 -1 1 -2 l0 45 Z" /><glyph glyph-name="" unicode="&#x6447;" d="M120 128 q0 3 2 2 q-6 11 -18 31 q1 -1 -1 2 l2 2 q22 -10 29 -17 q4 -3 0 -10 q-3 -5 -8 -10 q3 -2 9 -6 q2 -1 3 -2 q4 -2 1 -5 q-1 -1 -2 -3 q-2 -2 -3 -3 l55 4 q14 0 32 4 q10 -8 12 -11 q1 -2 -2 -2 q-4 0 -14 0 q-11 -1 -16 -1 l-29 -2 q1 0 2 -1 q2 -1 2 -2 q3 0 2 -4 l-1 -24 l25 1 q18 0 35 5 q3 -3 9 -8 q2 -2 2 -2 q1 -2 1 -4 q-1 -1 -3 -1 q-29 0 -37 -1 l-32 -1 l-1 -59 l36 1 l0 18 q0 13 0 29 q-1 2 0 3 q1 1 3 0 q5 -2 12 -5 q2 -2 3 -2 q1 -1 1 -3 q0 -11 0 -23 q0 -15 0 -30 q1 -4 -2 -5 q-2 -1 -10 -5 q-3 -1 -4 -2 q-3 -1 -3 2 l0 15 l-83 -4 q-14 0 -23 -4 l-8 12 q9 3 8 9 l0 17 q0 15 -1 23 q0 3 3 2 q1 0 4 -1 q8 -3 10 -5 q4 -1 3 -5 l0 -26 q0 -9 -2 -12 l35 1 l0 58 l-38 -2 q-10 0 -26 -2 l-10 11 q6 0 18 1 q10 0 15 0 l42 3 l0 31 l-34 -3 q-15 -17 -31 -29 l-3 3 q13 21 22 39 q4 9 7 18 ZM67 199 q2 0 2 -6 q-1 -7 -1 -21 l0 -22 q1 0 2 0 q15 2 22 4 q2 -2 6 -5 q3 -3 4 -4 q1 -2 1 -3 q-1 -1 -3 -1 q-16 0 -23 -1 l-9 0 q0 -23 0 -44 l25 10 l2 -4 q-13 -10 -27 -19 q0 -4 0 -8 q0 -6 -1 -17 q0 -29 -2 -39 q-2 -23 -20 -44 q-6 -7 -9 -6 q-2 2 0 11 q5 11 0 15 q-2 2 -9 6 q-10 8 -18 14 l3 3 l32 -13 q3 19 5 66 q-5 -3 -14 -8 q-6 -4 -9 -6 q-3 -3 -7 0 q-9 9 -13 14 l43 17 q0 25 0 50 l-11 0 q-10 -2 -21 -2 l-8 10 q4 0 13 1 q10 0 13 1 l14 1 l0 24 q0 22 -1 31 q0 2 1 2 q0 1 3 0 q5 -2 12 -5 q2 -2 3 -2 ZM211 204 q4 3 7 -1 q8 -9 13 -15 q2 -2 1 -3 q0 -1 -2 -1 q-2 0 -7 -1 q-10 -1 -15 -2 q-53 -8 -116 -11 l-1 4 q69 12 106 24 q1 1 4 2 q8 2 10 4 ZM216 172 q1 3 2 3 q1 0 3 -2 q4 -3 13 -12 q3 -3 0 -5 q-1 -1 -4 -3 q-3 -2 -6 -4 q-19 -16 -31 -23 l-3 3 q13 17 21 32 q1 1 2 3 q1 3 3 8 ZM152 171 l3 2 q15 -11 23 -23 q6 -3 -1 -10 q-6 -7 -12 -10 q-3 14 -12 37 q-1 3 -1 4 Z" /><glyph glyph-name="" unicode="&#x64ad;" d="M200 177 q1 4 5 1 q4 -3 13 -12 q3 -3 0 -4 q-2 -2 -7 -5 q2 1 -2 -1 q-10 -8 -25 -16 q-2 -1 -3 -2 l11 0 q21 2 36 5 q9 -7 11 -10 q2 -1 2 -2 q-1 -1 -3 -1 q-5 0 -19 -1 q-14 0 -18 0 l-27 -2 q36 -27 75 -33 l-1 -4 q-6 -2 -15 -8 q-2 -1 -3 -2 q-2 -3 -7 0 q-27 13 -52 42 l-1 -33 q0 -3 -2 -4 q-7 -4 -14 -6 q-2 -2 -2 2 l0 33 q-23 -20 -48 -32 l1 0 q3 -1 10 -6 q3 -2 5 -3 l77 4 q3 -1 4 3 q0 0 0 2 q1 2 1 3 q1 3 2 3 q1 0 2 -1 q14 -12 18 -16 q5 -4 0 -6 q-4 -2 -4 -6 q0 -11 0 -35 q-1 -26 -1 -39 q0 -4 -1 -5 q-7 -5 -14 -7 q-4 -2 -4 1 l0 23 q-9 0 -22 0 l-58 -1 l0 -11 q0 -4 -2 -6 q-1 0 -3 -2 q-3 -2 -12 -5 q-2 -1 -2 0 q-1 0 -1 2 q2 49 2 80 q0 13 -1 26 l0 1 q-2 -1 -4 -2 q-4 -3 -13 -6 l-3 4 q35 23 60 49 l-23 -1 q-4 -1 -13 -1 q-9 -1 -13 -1 l-9 10 q6 0 16 1 q11 0 16 0 l38 2 l1 41 q-30 -3 -63 -4 l-2 4 q69 10 109 22 q10 3 16 6 q3 2 6 -1 q9 -9 12 -15 q1 -2 0 -2 q0 -1 -2 -1 q-9 0 -23 -3 q-11 -1 -30 -4 q-10 -1 -15 -2 q5 -1 8 -4 q0 0 1 -1 q1 0 1 -3 l-1 -32 l6 1 l-1 1 q13 17 19 28 q1 1 2 4 q1 2 3 6 ZM66 199 q2 0 2 -6 q-1 -10 0 -21 l0 -21 q2 0 6 1 q13 1 17 3 q6 -5 11 -10 q1 -1 1 -2 q-1 -1 -3 -1 q-16 0 -23 -1 l-9 -1 q0 -22 -1 -45 l25 10 l2 -4 q-5 -4 -18 -12 q-6 -4 -9 -6 q0 -4 0 -8 q0 -6 -1 -17 q0 -29 -2 -39 q-2 -23 -20 -44 q-6 -7 -8 -6 q-3 2 0 11 q4 10 -1 15 q-1 1 -3 3 q-11 8 -24 17 l3 3 l32 -13 q3 9 5 66 q-12 -7 -22 -13 q-3 -3 -6 0 q-2 1 -7 7 q-4 5 -6 7 l41 16 q1 26 1 51 l-11 -1 q-5 0 -21 -2 l-8 11 q5 0 17 1 q7 0 9 0 l14 2 l0 23 q0 5 0 16 q-1 11 -1 15 q0 2 0 3 q1 0 3 -1 q5 -2 12 -5 q2 -2 3 -2 ZM169 59 l-1 -18 q12 0 21 3 q5 -5 9 -9 q2 -2 -1 -2 q-3 0 -9 0 q-9 -1 -13 -1 l-7 0 l0 -27 l8 0 q4 0 11 1 q8 0 11 1 l2 -2 l1 62 l-39 -2 q3 -1 6 -3 q0 0 0 -1 q1 -1 1 -2 ZM120 29 l0 -25 l32 0 l0 27 l-14 -1 q-14 0 -18 -1 ZM120 39 q10 0 16 0 l16 1 l0 25 l-32 -2 l0 -24 ZM109 169 l3 3 q19 -8 26 -16 q5 -2 0 -9 q-7 -9 -11 -12 q-6 18 -18 34 Z" /><glyph glyph-name="" unicode="&#x653e;" d="M166 206 q0 3 1 3 q1 1 3 -1 q10 -4 16 -7 q3 -2 1 -6 q-1 -2 -3 -6 q-4 -6 -6 -11 q-5 -14 -11 -26 q6 0 9 0 l33 2 q20 2 29 5 q2 -2 6 -5 q3 -3 4 -4 q2 -2 1 -2 q0 -1 -2 -1 q-10 0 -23 -2 l-12 0 q3 -1 7 -4 q5 -2 6 -3 q3 -1 1 -5 q-13 -58 -31 -89 q24 -34 59 -49 l-1 -4 q-7 -3 -19 -10 q-5 -3 -8 1 q-26 18 -42 46 q-22 -30 -77 -57 l-3 3 q50 36 70 71 q-16 33 -24 75 q-12 -21 -24 -34 l-3 2 q24 50 38 99 q0 2 1 5 q2 5 4 14 ZM10 159 q15 0 33 2 l30 2 q-6 17 -19 42 l4 3 q17 -11 31 -25 q5 -5 0 -12 q-1 -1 -2 -2 q-1 -1 -5 -5 l11 0 q25 3 36 5 q1 -1 4 -4 q5 -6 7 -7 q1 -2 1 -3 q-1 0 -3 0 q-17 0 -38 -2 l-44 -3 q2 -1 5 -2 q3 -2 4 -3 q1 -1 1 -3 q-1 -6 -2 -16 q-1 -5 -1 -8 q0 -1 0 -3 q-1 -3 -1 -4 l32 2 q0 0 1 0 q4 1 5 4 q1 2 1 6 q0 0 0 1 q1 4 4 0 q5 -4 12 -11 q4 -4 6 -5 q3 -4 -1 -5 q-5 -2 -4 -9 q-2 -41 -5 -69 q-1 -17 -11 -25 q-11 -9 -16 -18 q-4 -5 -7 -4 q-2 2 -1 8 q6 13 -1 14 q-3 2 -17 11 q-7 5 -10 7 l2 4 l36 -13 q9 8 11 94 l-38 -2 q-9 -85 -50 -125 l-3 2 q30 59 36 144 q1 8 1 27 q-12 0 -25 -2 l-10 12 ZM163 141 l-1 0 q-3 -6 -7 -12 q13 -40 28 -68 q15 29 23 81 q0 2 0 2 l-27 -2 q-10 0 -16 -1 Z" /><glyph glyph-name="" unicode="&#x65b0;" d="M170 108 l-2 2 q0 -96 -53 -136 l-3 4 q25 33 32 69 q7 33 6 112 q0 18 -1 27 q0 3 1 3 q1 1 3 -1 q5 -2 14 -9 q1 -1 2 -2 q23 8 39 17 q4 2 11 6 q1 1 1 1 q4 4 6 1 q2 -2 7 -8 q5 -5 6 -7 q2 -2 2 -3 q0 -1 -4 -2 q-6 0 -18 -4 q-23 -5 -50 -9 q0 -28 -1 -51 q4 0 10 1 q4 0 5 0 l33 2 q2 0 7 1 q13 2 16 3 q7 -5 10 -10 q2 -2 1 -2 q0 -1 -2 -1 q-18 0 -23 -1 l-23 -1 q6 -3 11 -6 q3 0 2 -3 q0 -3 0 -11 q-1 -8 -1 -12 q0 -39 0 -96 q0 -6 -2 -6 q-10 -5 -15 -6 q-2 -1 -2 0 q-1 0 -1 2 q2 51 2 108 q0 5 -1 15 q0 10 0 14 l-9 0 q-2 0 -7 0 q-6 -1 -9 -1 ZM68 -25 q-3 -4 -6 -3 q-3 2 -2 7 q4 11 -1 14 q-9 6 -25 11 l2 4 l30 -6 q2 4 2 18 q1 10 1 47 l-20 -1 q-3 -1 -12 -1 q-10 -1 -13 -1 l-9 10 q16 0 32 2 l22 1 l0 5 q0 16 -1 23 l0 1 l-28 -1 q-3 -1 -11 -1 q-8 -1 -12 -1 l-10 10 q5 0 18 1 q9 0 11 0 l48 3 q6 14 12 29 q1 4 3 9 q1 3 1 4 q0 5 5 3 q4 -3 12 -8 q2 -1 3 -2 q3 -1 0 -5 q-4 -4 -8 -9 q-4 -4 -10 -11 q-5 -6 -8 -9 l1 0 q27 3 37 5 q8 -6 11 -9 q2 -2 1 -3 q0 -1 -2 -1 q-5 0 -14 0 q-12 -1 -20 -1 l-35 -3 q8 -2 12 -5 q3 0 2 -5 q0 -7 0 -18 q20 1 36 4 q9 -7 11 -10 q2 -2 1 -2 q0 -1 -2 -1 q-23 0 -33 -1 l-13 -1 q0 -37 0 -54 q0 -18 -8 -23 q-7 -9 -11 -15 ZM24 160 l-9 11 q5 0 17 1 q9 0 12 0 l33 2 q-4 15 -18 33 l3 3 q27 -13 31 -18 q8 -5 0 -11 q-2 -3 -5 -6 l16 1 q22 2 29 4 q6 -6 9 -9 q2 -2 1 -3 q0 -1 -3 -1 q-18 0 -28 -1 l-65 -4 q-3 0 -13 -1 q-6 -1 -10 -1 ZM9 -7 l-3 2 q17 23 28 48 q3 8 5 14 q1 3 1 3 q1 1 3 -1 q3 -2 10 -7 q3 -2 4 -3 q2 -2 -1 -4 q-1 -1 -2 -3 q-4 -4 -5 -7 q-22 -31 -40 -42 ZM116 9 q-4 15 -21 45 l3 2 q24 -16 28 -22 q6 -4 1 -10 q-4 -9 -11 -15 ZM52 117 q-4 20 -15 40 l4 2 q18 -12 24 -21 q6 -4 0 -11 q-5 -5 -13 -10 Z" /><glyph glyph-name="" unicode="&#x666f;" d="M22 98 l-10 12 q32 0 43 1 l72 3 q-8 9 -23 20 l-26 -1 q1 -3 -2 -4 q-4 -4 -14 -8 q-3 -1 -3 0 q-1 0 0 2 q0 12 1 32 q0 15 0 22 q0 3 0 9 q-1 9 -1 13 q0 2 1 3 q1 0 2 -1 q7 -4 17 -10 l97 4 q3 0 4 3 q0 0 0 2 q1 2 1 4 q1 3 2 3 q1 0 3 -2 q3 -3 10 -9 q5 -4 7 -6 q3 -3 3 -4 q0 0 -3 -2 q-4 -2 -4 -7 q0 -17 0 -38 q1 -3 -2 -4 q-4 -4 -13 -7 q-3 -1 -3 -1 q-1 0 -1 3 l0 6 q-11 0 -26 0 l-35 -1 q14 -3 20 -6 q6 -3 2 -7 q-2 -3 -5 -8 l51 2 q3 0 11 1 q26 2 34 4 q4 -2 10 -8 q3 -2 4 -3 q2 -2 2 -3 q-1 -1 -4 -1 q-9 1 -32 0 q-11 0 -15 0 l-138 -5 q-4 0 -14 -1 q-17 -1 -23 -2 ZM60 29 q-2 -1 -3 0 q0 0 0 2 q0 17 0 41 q0 9 0 18 q-1 2 0 3 q1 0 3 -1 q6 -2 14 -7 l106 5 q3 -1 4 4 q1 1 1 4 q1 4 4 2 q5 -4 12 -9 q4 -4 6 -5 q3 -3 3 -4 q0 -1 -4 -2 q-3 -2 -4 -6 q0 0 0 -1 q0 -14 0 -26 q0 -4 -1 -5 q-7 -4 -15 -6 q-2 -1 -2 0 q-1 0 -1 2 l0 6 q-18 0 -26 -1 l-25 -1 q3 0 5 -2 q0 0 1 0 q2 -1 2 -4 q2 -19 0 -30 q1 -18 -7 -22 q-6 -6 -11 -13 q-4 -5 -7 -4 q-2 1 -1 7 q2 8 -4 11 q-6 3 -30 13 l2 2 l36 -5 q3 4 3 33 q0 3 -1 8 q0 4 0 6 l-44 -1 q0 -4 -3 -5 q-5 -3 -13 -7 ZM79 157 l-1 1 l0 -16 l72 3 q18 0 28 2 q1 -1 2 -2 l0 41 l-101 -4 l-1 -16 q15 0 19 1 l40 1 q8 1 5 1 q15 1 20 2 q1 -1 4 -3 q3 -3 4 -4 q2 -2 1 -2 q0 -1 -2 -1 q-6 0 -20 -1 l-49 -2 q-3 0 -12 -1 q-7 0 -9 0 ZM184 80 l-108 -4 l0 -26 l74 3 q3 0 11 1 q15 1 20 2 q2 -2 2 -2 l1 26 ZM223 -17 q-26 20 -65 41 l2 4 q42 -7 60 -15 q11 -3 8 -12 q-2 -10 -5 -18 ZM12 -16 l-2 3 q35 17 50 30 q2 2 5 4 q5 5 8 9 q2 5 6 0 q1 -1 3 -2 q9 -6 10 -8 q4 -2 -2 -5 q-2 -1 -7 -4 q-7 -3 -10 -5 q-33 -16 -61 -22 Z" /><glyph glyph-name="" unicode="&#x6709;" d="M66 -28 q-2 -1 -3 0 q0 0 0 2 q1 21 2 76 q1 34 1 50 q-29 -26 -59 -43 l-3 3 q34 29 61 62 q0 5 0 11 q0 3 0 3 q1 1 3 -1 q1 0 4 -2 q1 -1 2 -1 q11 14 18 26 l-32 -1 q-17 0 -34 -2 l-11 12 q7 0 23 1 q13 0 18 0 l44 2 q2 3 5 8 q3 6 4 8 q2 4 6 13 q3 7 4 10 q1 3 1 3 q1 0 4 -2 q7 -4 14 -11 q3 -3 0 -6 q-4 -9 -12 -19 q0 0 0 -1 q-1 -1 -1 -2 l57 3 q2 0 5 0 q35 2 47 5 q4 -3 10 -10 q2 -2 3 -3 q1 -1 1 -2 q0 -1 -2 -1 q-38 0 -55 -1 l-74 -3 q-12 -17 -25 -32 l89 3 q5 0 7 4 q0 2 1 4 q0 2 0 3 q1 2 1 2 q1 1 3 -1 q5 -4 13 -11 q6 -5 8 -6 q3 -2 -1 -5 q-5 -2 -4 -8 q2 -67 0 -102 q0 -17 -9 -24 q-7 -8 -15 -15 q-4 -5 -7 -4 q-2 2 0 8 q3 12 -2 15 q-4 2 -19 10 q-11 6 -16 9 l2 5 l42 -14 q3 8 3 98 q0 15 0 22 l-102 -4 l-1 -29 q13 0 24 0 l33 2 q13 0 24 2 q6 -4 9 -9 q2 -2 1 -2 q0 -1 -2 -1 q-11 0 -26 0 l-36 -2 q-17 0 -24 -1 l-3 3 l0 -32 q13 0 24 0 l33 1 q3 0 10 1 q13 1 17 2 q5 -5 9 -9 q1 -2 1 -3 q0 0 -2 0 q-19 0 -28 -1 l-37 -1 q-3 0 -9 0 q-9 -1 -15 -1 l-3 3 l-1 -54 q0 -6 -2 -6 q-12 -6 -16 -7 Z" /><glyph glyph-name="" unicode="&#x673a;" d="M216 -15 q-39 -4 -36 44 q-1 47 2 140 l-39 -2 q-2 -94 -13 -128 q-10 -35 -46 -64 l-4 3 q25 31 34 69 q9 37 9 109 q0 15 -1 32 q0 4 1 4 q0 0 3 -2 q15 -10 19 -12 l32 2 q3 0 5 3 q3 6 3 9 q0 3 1 3 q1 1 3 -1 q2 -2 7 -6 q12 -10 14 -13 q3 -2 2 -3 q0 -1 -4 -3 q-7 -2 -6 -7 q-2 -37 -2 -75 q-1 -40 0 -59 q-3 -31 21 -28 l10 69 l6 -1 q0 -40 0 -61 q0 -7 8 -8 q9 -4 8 -7 q0 -6 -25 -6 q-6 -1 -12 -1 ZM96 63 q-5 17 -25 42 q-1 -48 -1 -117 q1 -3 -2 -5 q-2 -1 -11 -6 q-4 -1 -5 -2 q-2 -1 -2 0 q-1 0 -1 2 q0 6 1 21 q2 59 3 94 q-21 -44 -46 -69 l-3 2 q29 52 48 114 l-9 -1 q-12 0 -24 -2 l-10 11 q4 1 15 1 q11 1 15 1 l15 1 q0 11 0 22 q1 8 0 22 q0 9 0 13 q0 2 0 3 q1 0 3 -1 q10 -3 16 -7 q1 -1 1 -3 q-1 -10 -1 -29 q0 -3 0 -9 q-1 -7 -1 -10 l2 0 q15 1 27 4 q3 -2 7 -7 q2 -2 3 -3 q2 -1 2 -3 q-1 -1 -4 -1 q-11 0 -26 0 l-11 -1 q0 -13 -1 -27 q27 -15 34 -21 q6 -4 2 -12 q-5 -9 -11 -17 Z" /><glyph glyph-name="" unicode="&#x6765;" d="M225 0 q-4 -2 -7 0 q-47 22 -81 78 q-1 -32 -1 -92 q0 -6 -2 -6 q-10 -6 -18 -8 q-2 -1 -2 0 q-1 0 -1 2 q1 14 1 43 q1 29 1 44 q-47 -46 -106 -70 l-3 4 q59 38 100 87 l-48 -2 q-14 0 -33 -2 l-11 13 q31 0 41 1 l60 2 q1 33 1 61 l-50 -2 q-3 0 -14 0 q-15 -1 -20 -1 l-11 12 q31 0 41 1 l54 2 q0 18 0 34 q0 3 0 3 q1 1 3 0 q5 -2 16 -7 q2 -2 3 -2 q1 0 1 -4 q-1 -9 -1 -23 l24 1 q37 3 51 6 q3 -3 10 -9 q4 -3 5 -4 q2 -1 1 -2 q0 -1 -2 -1 q-5 0 -19 0 q-18 -1 -27 -1 l-44 -2 q0 -29 0 -61 l38 1 q39 3 52 5 q1 -1 3 -2 q10 -9 12 -11 q2 -1 2 -2 q-1 -1 -3 -1 q-29 0 -46 -1 l-52 -1 q43 -47 107 -67 l0 -4 q-11 -4 -25 -12 ZM146 97 l-2 3 q2 2 6 6 q18 19 27 33 q2 3 5 7 q1 3 2 4 q2 4 5 1 q9 -9 14 -14 q2 -2 1 -2 q0 -1 -2 -2 q-1 -1 -4 -3 q-4 -3 -7 -5 q-22 -17 -45 -28 ZM83 98 q-15 27 -32 47 l3 3 q32 -17 40 -25 q6 -4 0 -12 q-6 -9 -11 -13 Z" /><glyph glyph-name="" unicode="&#x6807;" d="M93 71 q-9 18 -23 39 q-1 -51 -1 -124 q0 -4 -2 -6 q-6 -4 -16 -8 q-3 -1 -3 2 q2 25 4 121 q-21 -43 -45 -70 l-3 3 q29 51 46 109 l-7 0 q-10 0 -24 -2 l-10 11 q5 0 17 1 q9 0 13 0 l14 1 q0 16 1 24 q0 21 -1 35 q0 2 0 3 q1 0 3 -1 q12 -4 15 -7 q1 -1 1 -3 q0 -16 0 -29 q-1 -11 -1 -20 q8 0 22 2 q2 1 3 1 q6 -5 9 -10 q3 -2 2 -3 q0 0 -4 0 q-1 0 -6 0 q-12 -1 -18 -1 l-8 -1 q0 -3 0 -9 q-1 -7 -1 -10 q25 -15 31 -21 q5 -4 2 -11 q-3 -8 -10 -16 ZM105 115 l-11 12 q24 0 34 1 l69 3 q2 0 10 1 q23 2 31 4 q7 -7 12 -12 q2 -2 1 -2 q0 -1 -2 -1 q-28 0 -41 -1 l-39 -2 q7 -2 10 -4 q0 0 1 -1 q2 -1 2 -4 q0 -2 0 -5 q-1 -9 0 -13 q0 -14 -1 -34 q0 -35 -1 -41 q-1 -18 -8 -23 q-7 -8 -12 -16 q-4 -5 -7 -4 q-2 1 -1 7 q5 12 -1 15 q-12 7 -35 18 l2 4 l39 -11 q3 9 4 26 q1 17 1 65 q0 14 -1 21 l-26 -1 q-3 -1 -15 -1 q-10 -1 -15 -1 ZM86 3 l-4 2 q19 31 34 69 q3 11 5 20 q1 3 1 3 q1 1 4 -1 q10 -6 16 -9 q4 -3 1 -6 q-2 -2 -6 -9 q-1 -2 -2 -3 q-22 -38 -49 -66 ZM118 170 l-9 12 q6 0 18 1 q8 0 10 0 l51 3 q25 2 33 4 l11 -11 q2 -2 1 -2 q0 -1 -2 -1 q-20 0 -33 -1 l-58 -3 q-4 0 -18 -2 q10 2 -4 0 ZM229 9 q-9 37 -30 80 l3 2 q30 -31 43 -53 q6 -8 -1 -15 q-5 -7 -15 -14 Z" /><glyph glyph-name="" unicode="&#x6839;" d="M115 -26 l-15 16 q12 7 10 18 l0 158 q0 20 -1 29 q0 2 1 2 q0 1 3 0 q8 -6 16 -10 l68 3 q2 0 3 3 q1 1 1 3 q1 2 1 3 q0 3 1 3 q0 0 3 -2 q2 -2 7 -6 q8 -6 10 -8 q3 -3 3 -4 q0 -2 -3 -3 q-4 0 -3 -6 q-2 -41 -2 -80 q0 -3 -1 -4 q-2 -2 -11 -6 q-3 -1 -4 -2 q-3 -1 -3 2 l0 9 q-7 0 -16 0 l-28 -1 q15 -27 30 -45 q18 14 30 28 q5 6 8 12 q2 5 6 0 q2 -3 7 -9 q2 -3 3 -4 q2 -3 0 -4 q-1 -1 -1 -1 q-1 -1 -4 -3 q-5 -3 -9 -5 q-19 -12 -35 -19 q25 -30 61 -43 l0 -4 q-14 -4 -26 -11 q-4 -2 -7 1 q-41 34 -70 106 l-20 0 l0 -74 q0 -6 -1 -12 q0 -1 0 -2 l48 26 l3 -5 l-51 -36 q-7 -5 -12 -13 ZM16 137 l-8 10 q6 0 17 1 q7 0 10 0 l17 1 q1 13 1 25 q0 18 -1 34 q0 2 0 3 q1 0 3 -1 q10 -3 16 -8 q1 -1 1 -3 q-1 -8 -1 -27 q0 -3 0 -10 q-1 -8 -1 -12 q14 1 23 4 q6 -6 9 -10 q2 -2 1 -2 q0 -1 -2 -1 q-18 0 -28 -1 l-3 0 q0 -10 0 -22 q18 -13 28 -24 q4 -5 1 -10 q-2 -6 -10 -15 q-7 19 -19 40 q-1 -46 -1 -126 q1 -5 -2 -5 q-4 -3 -15 -8 q-2 -2 -2 2 q0 34 2 126 q-21 -51 -44 -78 l-4 2 q28 52 44 117 l-11 -1 q-2 0 -10 0 q-8 -1 -11 -1 ZM200 180 l-71 -3 l-1 -34 l40 2 q2 0 7 1 q9 1 12 2 q5 -6 8 -9 q1 -1 1 -2 q-1 -1 -3 -1 q-9 0 -19 0 l-46 -3 l0 -33 l52 2 q3 0 10 1 q5 0 6 0 q1 0 2 -1 q1 0 1 -1 l1 79 Z" /><glyph glyph-name="" unicode="&#x6b63;" d="M38 164 l-11 14 q31 0 39 1 l100 4 q27 2 44 5 q10 -10 12 -13 q2 -2 2 -3 q0 -1 -3 -1 q-25 0 -40 -1 l-43 -1 q3 -1 5 -3 q2 0 2 -3 q-1 -8 -1 -29 l0 -40 l42 3 q10 1 25 4 q9 -9 10 -12 q2 -2 1 -2 q0 -1 -2 -1 q-3 0 -11 0 q-12 -1 -18 -1 l-47 -4 l0 -80 l30 1 q31 1 54 5 q1 -1 4 -4 q8 -6 10 -9 q2 -2 1 -3 q0 -1 -2 -1 q-16 1 -55 1 l-128 -4 q-13 0 -37 -2 l-12 14 q28 0 46 0 l2 0 l0 85 q0 26 -1 35 q0 3 4 2 q7 -3 15 -8 q2 0 2 -3 q-1 -8 -1 -28 l0 -82 l48 0 l0 136 q0 17 0 32 l-55 -2 q-9 0 -28 -2 q13 2 -3 0 Z" /><glyph glyph-name="" unicode="&#x6bd4;" d="M234 -14 q-38 -3 -65 2 q-37 4 -34 55 q-1 51 2 135 q0 11 0 24 q0 3 1 3 q1 1 4 -1 q12 -6 15 -8 q3 -1 3 -5 q-2 -29 -4 -86 q0 -8 0 -12 q30 25 52 50 q6 7 8 13 q2 2 3 2 q1 0 3 -3 q8 -8 12 -15 q3 -4 1 -5 q0 0 -1 -1 q-5 -3 -14 -10 q-28 -20 -64 -38 q0 -26 0 -44 q-2 -34 20 -38 q20 -4 37 -4 l13 59 l5 -2 q-1 -20 -1 -49 q-1 -9 10 -12 q7 -3 7 -6 q0 -4 -13 -4 ZM43 -20 l-16 17 q13 6 12 19 l4 149 q0 22 -1 31 q1 4 4 1 q1 -1 4 -2 q8 -4 12 -6 q3 -1 2 -5 l-1 -70 l27 2 q1 0 5 1 q14 2 19 4 q4 -3 9 -9 q1 -1 2 -2 q1 -2 1 -2 q-1 -1 -2 -1 q-3 -1 -10 -1 q-7 -1 -11 -1 l-41 -3 l-1 -74 q0 -8 -2 -13 q0 0 0 -1 l61 35 l3 -5 l-65 -48 q-10 -7 -15 -16 Z" /><glyph glyph-name="" unicode="&#x6bdb;" d="M37 101 l-11 11 q26 2 39 5 l33 4 l0 6 q1 18 1 37 q-47 -9 -73 -10 l-2 4 q90 20 140 37 q10 5 13 6 q4 5 6 0 q2 -2 6 -6 q7 -6 9 -9 q1 -1 1 -2 q0 -1 -3 -2 q-6 -1 -21 -4 q-18 -4 -64 -12 q1 -1 3 -3 q3 -1 4 -2 q0 0 1 -1 q2 -1 2 -4 q-1 -12 -1 -32 l32 5 q23 4 42 9 q1 -1 3 -2 q9 -6 11 -9 q2 -1 2 -2 q-1 -1 -3 -1 q-21 -2 -42 -5 l-45 -6 l0 -39 l58 8 q31 4 46 11 q10 -6 16 -12 q2 -2 2 -2 q0 -1 -3 -2 q-2 0 -7 -1 q-28 -2 -39 -4 l-73 -9 q0 -8 0 -11 q-1 -41 34 -46 q13 -3 55 -5 l10 44 l5 -1 q0 -20 0 -32 q0 -11 12 -12 q8 -3 8 -6 q-1 -6 -14 -6 q-40 -3 -75 2 q-60 6 -57 62 q0 4 0 8 l-37 -4 q-6 -1 -21 -3 q-11 -2 -17 -3 l-11 11 q6 1 25 3 q15 2 19 2 l42 5 q0 17 0 39 l-28 -4 q-1 0 -4 -1 q-20 -2 -29 -4 Z" /><glyph glyph-name="" unicode="&#x751f;" d="M21 -14 l-10 14 q23 -2 43 0 l64 0 l1 61 l-30 -1 q-6 0 -28 -2 q2 1 -4 0 l-11 13 q34 0 39 1 l34 1 l1 51 l-22 -1 q-6 0 -20 -1 q-5 -1 -7 -1 l-4 5 q-14 -30 -41 -66 l-4 3 q20 41 35 92 q3 13 5 25 q0 2 1 2 q1 1 3 -1 q1 -1 3 -2 q12 -6 14 -9 q3 -1 1 -6 q-1 -3 -4 -9 q-4 -8 -6 -12 q0 -1 -1 -2 q0 -3 -3 -8 q6 0 16 1 q7 0 10 0 l24 1 l0 26 q0 22 0 40 q0 3 0 3 q1 0 3 -1 q10 -4 18 -8 q1 -1 1 -3 q0 -4 0 -16 q-1 -12 -1 -17 l-1 -22 l17 1 q25 0 43 6 q9 -8 12 -11 q3 -2 3 -4 q-1 -1 -4 -1 q-28 0 -42 -1 l-29 -2 l0 -51 l15 1 q29 2 46 6 q5 -4 13 -12 q2 -2 2 -3 q0 -1 -4 -1 q-23 0 -46 -2 l-26 -1 l-2 -61 l37 1 q40 3 54 6 q2 -2 6 -6 q7 -5 8 -7 q2 -2 2 -3 q-1 -1 -4 -1 q-11 1 -50 1 l-134 -4 q-10 0 -36 -2 Z" /><glyph glyph-name="" unicode="&#x7528;" d="M71 61 l-7 8 q-7 -63 -51 -98 l-5 3 q23 31 32 73 q8 39 8 118 q0 4 0 12 q-1 11 -1 16 q-1 2 0 2 q0 1 3 0 q9 -6 19 -12 l124 5 q5 0 6 5 q0 1 1 3 q0 1 0 2 q0 3 1 4 q1 0 3 -2 q10 -7 20 -17 q2 -2 2 -3 q0 -1 -3 -2 q-5 -2 -4 -8 q1 -36 0 -81 q0 -48 -1 -73 q0 -22 -9 -28 q-10 -10 -15 -16 q-3 -5 -6 -4 q-3 2 -2 8 q5 12 -2 15 q-6 5 -30 17 q-6 3 -8 4 l2 5 l46 -14 q3 5 5 64 q-1 0 -3 0 q-18 0 -32 -1 l-24 -1 q0 -46 0 -65 q0 -3 -3 -6 q-2 -1 -7 -4 q-6 -3 -8 -4 q-4 -1 -4 2 q1 9 1 37 q1 25 1 39 l-23 -1 q-8 0 -26 -2 ZM199 177 l-70 -3 q6 -3 11 -6 q3 0 2 -4 q-1 -11 -1 -32 q0 -2 0 -2 l6 0 q22 2 38 5 q8 -7 12 -12 q1 -1 1 -2 q0 -1 -2 -1 q-30 0 -41 -1 l-14 -1 q-1 -20 -1 -41 l8 0 q2 0 7 1 q24 1 30 4 q2 -2 7 -6 q5 -4 6 -5 q0 -1 1 -2 q0 52 0 108 ZM69 171 q0 -24 -1 -45 q6 0 16 1 q9 0 13 0 l24 2 l0 7 q0 26 -1 38 l-51 -3 ZM73 114 l-5 6 q0 -13 -2 -35 q-1 -8 -1 -11 q17 0 29 0 l26 2 q0 21 1 41 l-20 -1 q-12 0 -28 -2 Z" /><glyph glyph-name="" unicode="&#x7684;" d="M93 -20 q-4 -2 -4 3 l0 24 q-9 0 -19 0 l-26 -1 l0 -18 q1 -5 -2 -6 q-8 -5 -13 -7 q-3 -1 -3 0 q-1 0 -1 2 q1 24 1 158 q0 4 0 11 q-1 7 -1 10 q0 2 0 2 q1 0 3 -1 q1 -1 3 -2 q10 -6 13 -8 l3 1 q5 14 11 36 q0 2 1 6 q2 9 2 12 q1 5 2 5 q0 1 4 -2 q4 -3 11 -7 q4 -2 6 -3 q3 -1 0 -4 q-3 -4 -9 -15 q-7 -15 -19 -28 l30 2 q3 0 4 3 q1 2 1 6 q1 2 1 2 q1 1 3 -1 q10 -7 18 -15 q5 -4 0 -6 q-3 -1 -3 -6 q-1 -41 -1 -140 q0 -2 -1 -4 q-1 0 -1 -1 q-2 -1 -7 -4 q-5 -3 -7 -4 ZM188 -26 q-5 -5 -7 -4 q-3 2 -1 8 q6 10 -1 16 q-5 5 -26 19 q-7 5 -11 8 l2 4 l49 -24 q11 15 14 42 q4 27 4 99 l-61 -3 q-21 -33 -37 -48 l-3 3 q26 46 39 86 q5 13 6 25 q1 3 2 3 q1 1 3 -1 q2 -1 9 -5 q6 -4 8 -6 q3 -2 0 -6 q-1 -1 -2 -4 q-1 -2 -8 -16 q-1 -2 -3 -6 q-1 -3 -7 -14 l49 3 q5 0 5 3 q2 5 3 9 q0 3 1 3 q1 0 3 -2 q12 -12 19 -19 q3 -2 -1 -5 q-5 -2 -5 -8 q0 -7 -1 -23 q-1 -55 -3 -67 q-2 -40 -18 -49 q-13 -14 -21 -21 ZM90 140 l-46 -3 l0 -54 q3 0 5 0 l17 1 q10 0 14 1 q5 -5 7 -8 q1 -1 1 -2 q0 -1 -2 -1 q-6 0 -17 0 l-16 -1 q-5 0 -9 0 l0 -57 l25 1 q2 0 8 1 q6 0 8 1 q1 -1 3 -3 q1 -1 1 -1 l1 125 ZM175 45 q-14 29 -38 59 l3 3 q32 -19 45 -33 q4 -3 1 -12 q-4 -10 -11 -17 Z" /><glyph glyph-name="" unicode="&#x795d;" d="M68 -30 l-2 3 q61 34 66 107 q1 6 1 21 l0 1 l-4 0 l0 -3 q0 -5 -3 -6 q-5 -3 -13 -7 q-2 -1 -3 -1 q-1 1 0 3 q0 10 0 38 q1 31 1 43 q0 11 -1 23 q0 3 1 3 q0 1 2 0 q2 -1 5 -3 q9 -6 11 -8 l65 3 q0 0 1 1 q2 0 3 2 q2 3 2 7 q0 2 1 2 q1 1 3 -1 q14 -12 18 -15 q3 -3 3 -4 q0 -2 -3 -3 q-5 0 -4 -6 q-1 -21 -1 -64 q0 -4 -2 -5 q-1 -1 -4 -2 q-2 -1 -10 -5 q-4 -1 -4 2 l0 8 q-7 0 -16 0 l-4 0 q3 -1 7 -4 q4 -2 5 -2 q3 -3 1 -7 q-2 -42 -1 -69 q-3 -28 33 -29 l11 55 l5 -1 q0 -10 -1 -29 q0 -14 0 -18 q-1 -8 8 -11 q7 -3 7 -6 q-2 -6 -18 -6 q-71 -3 -64 48 q0 36 1 57 q0 11 0 21 l0 1 l-33 -2 q9 -3 13 -6 q3 -2 2 -5 q0 -3 -1 -8 q-1 -5 -2 -9 q-8 -81 -82 -104 ZM49 -24 q-3 -1 -3 2 q1 27 1 96 l0 7 q-18 -20 -41 -34 l-2 3 q40 44 64 93 l-50 -4 l-9 10 l58 4 q5 0 6 3 q4 2 4 5 q0 0 1 1 q1 2 4 -1 q8 -8 12 -14 q2 -2 2 -3 q-1 -1 -4 -2 q-4 0 -5 -4 q-14 -25 -24 -38 q3 -1 9 -4 q23 -10 27 -14 q7 -3 4 -12 q-3 -9 -7 -18 q-11 18 -30 37 q0 -8 0 -17 q0 -44 0 -83 q0 -4 -2 -6 q-10 -5 -15 -7 ZM198 177 l-69 -3 l0 -62 l49 3 q9 0 17 1 l3 -2 l0 63 ZM62 160 q-7 21 -26 45 l3 4 q27 -15 35 -23 q7 -6 1 -12 q-6 -9 -13 -14 Z" /><glyph glyph-name="" unicode="&#x79d2;" d="M16 120 l-10 11 q6 0 17 1 q8 0 11 0 l21 1 q1 11 0 30 q0 7 0 10 q-28 -6 -38 -7 l-3 3 q33 11 62 29 q2 1 5 4 q4 2 5 3 q1 3 4 0 q12 -10 16 -15 q2 -2 1 -2 q0 -1 -2 -2 q-1 0 -4 -1 q-2 0 -12 -3 q-12 -4 -24 -7 q5 -3 9 -5 q0 0 0 -1 q1 -1 0 -2 q0 -15 0 -33 q14 2 27 5 q6 -6 11 -11 q1 -1 0 -2 q0 -1 -2 -1 q-21 0 -32 -1 l-4 0 q0 -9 -1 -20 q19 -8 28 -16 q6 -4 3 -11 q-3 -8 -10 -16 q-7 17 -21 35 q0 -21 -1 -64 q0 -34 0 -49 q0 -3 -1 -5 q-1 0 -1 -1 q-5 -4 -14 -7 q-2 -1 -2 0 q-1 0 -1 2 q0 20 2 112 q-21 -39 -48 -66 l-3 2 q33 51 49 103 l-16 -1 q-9 -2 -21 -2 ZM90 -26 l-3 4 q68 36 108 100 q2 3 5 9 q7 11 9 17 q1 3 4 1 q2 -2 7 -7 q5 -5 7 -8 q2 -1 0 -4 q-1 -2 -4 -5 q-9 -12 -14 -19 q-45 -66 -119 -88 ZM164 66 q-3 -1 -3 2 q2 32 2 106 q0 24 -1 31 q0 3 3 2 q4 -2 16 -6 q1 -1 1 -4 q0 -11 0 -25 q0 -5 0 -18 q-1 -39 0 -76 q1 -3 -2 -5 q-3 -2 -13 -6 q-2 -1 -3 -1 ZM104 66 l-3 2 q19 43 28 78 q1 3 2 10 q2 7 2 9 q1 3 1 3 q1 1 3 -1 q4 -2 11 -7 q4 -2 5 -3 q3 -1 1 -5 q-2 -2 -5 -8 q-2 -4 -3 -6 q-20 -47 -42 -72 ZM236 101 q-22 35 -48 62 l2 3 q32 -16 52 -33 q7 -3 3 -15 q0 -1 -2 -4 q-5 -11 -7 -13 Z" /><glyph glyph-name="" unicode="&#x7b7e;" d="M68 76 l-6 7 q-24 -13 -50 -22 l-2 4 q63 36 102 75 q3 3 7 8 q5 6 7 8 q0 0 1 1 q1 4 5 0 q2 -3 3 -4 q7 9 17 27 q4 6 6 9 q2 4 5 13 q1 3 2 4 q2 4 5 1 q3 -2 9 -6 q3 -2 4 -3 q4 -2 1 -5 q-1 -1 -4 -4 q-3 -4 -6 -7 q0 0 0 -1 q-1 -1 -1 -2 l35 3 q8 0 22 3 q2 0 3 0 q7 -5 10 -10 q2 -2 -1 -2 q-3 0 -12 0 q-12 -1 -18 -1 l-33 -2 q24 -12 29 -16 q6 -2 1 -11 q-6 -9 -9 -13 q-8 17 -29 39 l-7 0 q-11 -12 -23 -21 l2 -3 q3 -3 0 -4 q-2 -2 -5 -4 q52 -40 112 -50 l-1 -5 q-12 -7 -20 -14 q-4 -4 -9 -1 q-44 18 -88 65 q-3 -3 -7 -6 q-19 -18 -54 -39 q4 0 13 1 q7 0 9 0 l44 2 q22 1 35 5 q8 -6 12 -10 q1 -1 1 -2 q0 -1 -2 -1 q-4 -1 -17 -1 q-11 -1 -17 -1 l-53 -2 q-14 -2 -28 -2 ZM25 -16 l-10 12 q6 0 24 1 q12 0 15 0 l90 3 q10 15 24 53 q2 4 4 11 q2 7 3 9 q0 2 1 2 q1 0 3 -2 q10 -5 15 -10 q3 -2 0 -5 q-1 -2 -5 -7 q-2 -4 -3 -6 q-16 -28 -33 -45 l24 0 q32 1 50 5 q6 -5 11 -10 q2 -2 2 -4 q-1 -1 -4 -1 q-19 0 -45 0 l-133 -4 q-17 0 -33 -2 ZM20 124 l-3 4 q27 30 44 61 q5 9 8 17 q0 0 0 1 q1 4 5 1 q1 -1 3 -2 q8 -6 10 -7 q2 -2 1 -4 q0 -1 0 -1 q-1 -1 -3 -4 q-4 -5 -7 -9 q-3 -3 -5 -6 l30 2 q13 0 20 3 q4 -3 10 -9 q1 -1 1 -2 q0 -1 -2 -1 q-11 0 -25 -1 l-25 -1 q11 -6 18 -10 q6 -3 1 -11 q-3 -5 -10 -10 q-4 14 -18 30 l-8 0 q-18 -22 -45 -41 ZM80 0 q-9 26 -27 60 l4 3 q20 -15 37 -35 q5 -4 -2 -14 q-6 -9 -12 -14 ZM125 11 q-4 28 -18 60 l3 2 q18 -15 32 -35 q4 -6 -2 -13 q-8 -10 -15 -14 Z" /><glyph glyph-name="" unicode="&#x7ea2;" d="M94 -6 l-9 11 q22 0 40 0 l34 1 q1 27 1 80 q1 46 0 70 l0 1 l-22 -1 q-3 0 -9 0 q-8 -1 -13 -1 l-10 12 q23 0 29 1 l61 3 q19 2 33 5 q9 -9 11 -12 q2 -2 1 -2 q0 -1 -2 -1 q-23 0 -34 -1 l-38 -2 q3 -1 7 -3 q5 -2 6 -3 q1 -1 1 -4 q0 -90 -2 -141 l19 1 q18 0 40 4 q2 -2 7 -7 q5 -4 6 -5 q1 0 1 -1 q-1 -1 -3 -1 q-8 1 -28 0 q-8 0 -11 0 l-81 -2 q-11 0 -35 -2 ZM20 105 l-12 19 q10 2 14 8 q16 22 34 55 q4 9 7 17 q2 2 2 2 q0 1 2 -1 q10 -8 15 -13 q2 -2 -1 -6 q-4 -3 -9 -11 q-30 -38 -45 -50 l46 6 q4 6 7 11 q7 10 9 18 q1 2 2 2 q0 1 2 -1 q4 -3 11 -11 q1 -1 2 -2 q3 -3 1 -5 q-1 -1 -1 -1 q-3 -3 -7 -8 q-2 -3 -4 -5 q-35 -42 -58 -62 l68 11 l2 -6 l-63 -18 q-11 -3 -17 -9 l-13 20 q11 2 16 9 q18 20 37 48 l-30 -8 q-1 0 -3 -1 q-10 -3 -14 -8 ZM26 -4 q-4 -2 -7 1 q-1 2 -5 6 q-5 7 -7 11 l109 18 l2 -5 q-13 -4 -46 -16 q-36 -12 -46 -15 Z" /><glyph glyph-name="" unicode="&#x7ecf;" d="M27 40 l-13 19 q10 2 16 10 q13 15 34 48 l-29 -8 q-10 -4 -17 -8 l-12 17 q8 2 13 9 q17 24 35 60 q1 1 2 4 q3 8 5 14 q1 3 4 0 q7 -4 15 -12 q2 -2 -1 -6 q-5 -5 -9 -12 q-33 -44 -44 -55 l44 7 q2 3 5 8 q3 4 8 13 q2 4 6 12 q2 5 3 7 q1 2 1 2 q1 1 2 -1 q4 -3 11 -11 q1 -1 2 -2 q3 -3 0 -7 q-6 -4 -11 -12 q-39 -54 -60 -74 l61 10 l2 -5 l-57 -18 q-11 -4 -16 -9 ZM97 -16 l-10 13 q9 -1 29 0 q5 0 6 0 l35 1 l2 71 l-12 0 q-3 0 -12 -1 q-8 0 -12 -1 l-10 12 q22 0 32 0 l38 2 q2 0 6 1 q18 1 26 4 q3 -3 8 -7 q3 -3 4 -4 q2 -2 1 -3 q0 -1 -2 -1 q-16 0 -30 0 l-26 -1 q4 -1 7 -3 q1 0 1 -5 l-1 -63 l12 0 q3 0 9 1 q27 0 37 2 q10 -7 13 -10 q2 -2 2 -3 q-1 -1 -4 -1 q-20 0 -43 0 l-78 -2 q-5 -1 -14 -1 q-9 -1 -14 -1 ZM232 85 q-19 20 -58 47 q-33 -27 -75 -43 l-2 4 q64 40 95 85 l-51 -2 q-6 0 -22 -2 l-10 11 q18 0 29 0 l55 3 q1 0 2 1 q4 0 5 2 q3 3 4 6 q2 3 2 3 q1 0 3 -2 q4 -5 12 -12 q2 -2 3 -3 q3 -3 2 -5 q-1 -1 -5 -2 q-6 2 -11 -7 q-15 -17 -30 -32 q39 -13 51 -21 q10 -3 6 -13 q-2 -12 -5 -18 ZM26 -9 q-2 -2 -6 1 q-9 8 -13 14 l104 30 l2 -5 q-12 -6 -42 -20 q-34 -15 -45 -20 Z" /><glyph glyph-name="" unicode="&#x7f29;" d="M102 -23 q2 82 2 122 q-12 -12 -27 -23 l-2 2 q24 31 40 60 q7 10 10 21 q0 2 1 2 q1 1 3 -1 q2 -1 7 -5 q5 -3 6 -5 q3 -2 -1 -5 q-1 -1 -3 -4 q-2 -3 -3 -4 q5 0 17 1 q7 0 9 0 l36 2 q1 0 2 0 q24 3 31 5 q5 -6 10 -11 q1 -1 1 -2 q-1 -1 -3 -1 q-3 0 -14 0 q-13 -1 -18 -1 l-24 -1 q2 -1 5 -3 q4 -3 5 -4 q3 0 0 -4 q0 0 -2 -2 q-3 -4 -5 -6 q-3 -5 -12 -14 l33 2 q0 0 1 1 q2 0 3 2 q0 1 1 3 q0 2 0 3 q0 0 0 1 q1 4 4 0 q9 -9 15 -15 q2 -2 2 -3 q0 -2 -3 -3 q-3 -2 -3 -7 q0 -9 0 -32 q1 -48 0 -60 q0 -4 -1 -5 q-9 -6 -13 -7 q-2 -1 -2 -1 q-1 1 -1 2 l0 20 q-2 0 -8 0 q-7 -1 -11 -1 l-32 -2 l0 -7 q0 -3 -1 -5 q0 1 -1 0 q-4 -4 -12 -8 q-3 -1 -3 2 q0 10 0 44 q1 41 1 55 q0 15 0 27 q0 4 2 2 q8 -4 13 -9 l8 0 q1 3 3 9 q2 8 4 13 q3 8 3 11 l-11 0 q-3 -1 -11 -1 q-8 -1 -11 -1 l-8 10 q-3 -3 -4 -6 q-2 -3 -6 -8 q-8 -10 -12 -15 q5 -2 7 -4 q0 0 1 -1 q1 0 1 -2 q-2 -45 -2 -113 q0 -3 -1 -5 q0 1 -1 0 q-5 -5 -13 -7 q-2 -2 -2 2 ZM77 74 l2 -6 l-41 -13 q-12 -4 -16 -9 l-11 18 q10 5 14 10 q17 24 29 46 l-20 -6 q-11 -3 -16 -8 l-11 17 q9 3 12 9 q17 25 28 54 q5 11 7 19 q0 0 0 1 q1 2 3 -1 q9 -6 14 -13 q3 -2 0 -6 q-3 -3 -8 -11 q-16 -25 -35 -49 l32 4 l1 3 q5 8 8 18 q1 2 1 2 q1 1 2 -1 q4 -2 10 -9 q2 -2 2 -2 q0 0 1 -1 q2 -2 -1 -5 q-1 -2 -6 -9 q5 6 -3 -4 q-22 -31 -42 -53 l44 5 ZM209 88 l-51 -3 l0 -33 l20 1 q12 0 21 3 q1 -3 5 -7 q1 -2 2 -3 q1 -1 1 -2 q0 -1 -2 -1 q-17 0 -28 -1 l-19 -1 l0 -37 l31 1 q1 0 4 1 q12 1 15 2 q1 -2 1 -2 l0 82 ZM110 190 q0 -8 -1 -16 l50 4 q-7 20 -16 31 l4 3 q17 -8 29 -17 q6 -5 1 -11 q-3 -3 -6 -6 l37 3 q7 0 11 3 q3 2 6 6 q2 2 2 2 q1 0 3 -2 q4 -4 13 -13 q2 -2 3 -3 q2 -4 1 -5 q-1 -2 -5 -1 q-8 0 -10 -2 q-5 -4 -20 -15 q-2 -1 -3 -2 l-3 3 l10 19 l-109 -7 q-4 -16 -9 -27 q-1 1 -3 3 q-4 3 -7 7 q-7 6 -1 12 q10 10 19 33 l4 -2 ZM17 -1 q-3 1 -8 9 q-2 4 -4 6 l84 16 l2 -5 q-41 -18 -68 -27 q-4 -2 -6 1 Z" /><glyph glyph-name="" unicode="&#x7f6e;" d="M17 -18 l-9 11 q30 0 40 1 l11 0 l0 84 q0 13 0 22 q0 2 0 3 q1 0 3 -1 q3 -1 9 -4 q6 -3 8 -5 l31 2 q1 3 1 9 q1 5 1 9 l-49 -2 q-18 0 -33 -2 l-9 12 q21 0 39 0 l54 2 q2 12 2 20 l-57 -2 q0 -1 -1 -1 q-6 -5 -14 -7 q-2 -1 -3 -1 q0 0 0 2 q0 18 0 42 q0 11 0 21 q0 3 0 3 q1 1 3 -1 q1 -1 3 -2 q10 -6 13 -8 l135 5 q0 0 1 0 q3 1 4 4 q1 1 1 3 q1 2 1 3 q0 2 1 2 q1 1 3 -1 q4 -4 11 -10 q4 -4 5 -5 q5 -5 0 -6 q-4 -3 -4 -7 q0 -12 0 -25 q0 -4 -1 -5 q-8 -5 -13 -7 q-2 -1 -3 -1 q-1 1 -1 3 l0 3 q-11 0 -28 0 l-48 -2 q1 -1 4 -2 q6 -3 8 -4 q3 -1 1 -4 q-1 -3 -3 -9 l46 2 q26 0 47 4 q2 -2 7 -6 q5 -4 6 -5 q1 -2 1 -3 q-1 -1 -3 -1 q-10 1 -37 0 q-9 0 -12 0 l-58 -2 q-1 -5 -3 -11 q-2 -4 -2 -6 l46 2 q6 0 7 3 q0 1 1 3 q0 2 0 3 q0 2 1 2 q1 0 3 -1 q7 -6 19 -15 q2 -2 2 -2 q0 -1 -2 -3 q-5 -2 -4 -7 l0 -82 q4 0 11 1 q20 0 26 1 q8 -4 12 -10 q2 -2 2 -3 q-1 -1 -4 -1 q-9 1 -33 0 q-11 0 -16 0 l-145 -4 q-4 0 -14 0 q-14 -1 -21 -1 ZM99 35 q-4 0 -11 -1 q-6 0 -9 0 l0 -16 q11 0 17 1 l36 1 q20 2 27 3 q5 -4 9 -9 q1 -2 -2 -2 q-11 0 -25 0 l-42 -2 q-10 0 -20 -2 l0 -13 l100 3 l0 90 l-99 -4 l-1 -16 q4 0 12 1 q4 0 5 0 l34 2 q17 0 26 3 q6 -6 9 -9 q1 -2 1 -2 q-1 -1 -2 -1 q-8 0 -26 0 l-39 -2 q-14 0 -20 -1 l0 -16 q5 0 12 1 q3 0 4 0 l35 1 q4 0 12 1 q11 1 15 2 l9 -8 q1 -2 0 -2 q0 -1 -2 -1 q-14 0 -25 -1 l-40 -1 ZM200 185 l-41 -2 q1 0 2 0 q1 -1 1 -1 q1 -1 1 -4 l0 -24 l5 0 q4 0 14 1 q11 1 15 2 q1 0 2 -2 q1 -1 1 -2 l0 32 ZM60 180 l-1 -30 l37 2 l0 29 l-36 -1 ZM111 176 l0 -24 l36 2 l0 29 l-40 -2 q0 0 2 -1 q1 0 1 -1 q1 -1 1 -3 Z" /><glyph glyph-name="" unicode="&#x80cc;" d="M59 -28 q-2 -1 -2 0 q-1 0 -1 2 q3 45 3 107 q0 14 0 25 q0 3 0 3 q1 1 3 0 q14 -7 18 -10 l88 4 q6 -1 6 3 q1 1 1 3 q1 2 1 3 q0 3 1 3 q1 0 3 -2 q3 -2 9 -7 q8 -6 11 -8 q3 -4 -1 -6 q0 0 -1 0 q-5 -2 -4 -8 q1 -31 1 -74 q0 -18 -10 -25 q-7 -6 -13 -15 q-4 -4 -7 -2 q-2 1 -1 6 q4 14 -2 15 q-14 7 -31 12 l1 4 l40 -5 q5 9 2 92 l-95 -4 l0 -20 q5 0 18 1 q4 0 5 0 l34 1 q14 2 23 3 q6 -5 9 -8 q1 -2 1 -3 q0 0 -3 0 q-2 0 -9 0 q-11 -1 -15 -1 l-36 -2 q-14 0 -20 -1 l-7 8 l-1 -28 q15 0 25 0 l32 2 q14 0 25 2 q5 -4 9 -9 q1 -3 -2 -3 q-10 0 -24 0 l-37 -1 q-3 0 -10 -1 q-7 0 -10 -1 l-8 9 l-1 -51 q1 -5 -3 -6 q-9 -6 -15 -7 ZM167 119 q-28 0 -26 34 q0 14 1 30 q0 11 0 22 q0 3 4 2 q12 -6 14 -8 q3 0 2 -2 q0 -2 0 -6 q-2 -12 -2 -25 q5 2 16 7 q10 5 16 7 q11 6 20 11 q3 3 5 -1 q2 -2 7 -8 q3 -3 4 -4 q2 -3 -3 -4 q-1 0 -7 -1 q-11 -3 -19 -5 q-22 -6 -39 -9 l0 -6 q-2 -20 11 -19 q20 -4 44 -2 l7 31 l5 0 q0 -15 0 -23 q-1 -7 6 -9 q9 -2 8 -5 q0 -3 -13 -6 q-35 -4 -61 -1 ZM30 162 l-9 12 q23 0 30 1 l38 2 l0 3 q0 12 0 25 q-1 3 4 2 q9 -3 14 -7 q1 -1 1 -3 q0 -2 0 -8 q-1 -7 -1 -11 l-1 -54 q0 -4 -1 -5 q-2 -1 -10 -5 q-3 -1 -4 -2 q-2 -1 -3 0 q0 0 0 2 q0 12 1 23 q-31 -12 -61 -23 q-3 -1 -6 2 q-2 2 -7 9 q-2 4 -4 6 l78 14 q0 10 0 22 l-31 -2 q-6 -1 -22 -2 q3 0 -6 -1 Z" /><glyph glyph-name="" unicode="&#x81ea;" d="M47 -26 q-2 -1 -2 -1 q-1 1 -1 2 q1 31 2 64 q0 15 0 35 q0 16 0 52 q0 20 0 39 q-1 5 2 2 q8 -4 18 -10 l26 1 q9 16 16 35 q1 3 3 9 q1 2 1 3 q1 2 1 2 q1 1 3 -1 q8 -3 18 -10 q3 -2 0 -4 q-4 -4 -9 -9 q-14 -18 -22 -24 l76 3 q4 0 5 3 q0 1 0 3 q1 2 1 4 q0 3 1 3 q1 0 3 -2 q0 0 1 -1 q16 -11 19 -15 q3 -2 3 -3 q0 -1 -3 -3 q-4 -2 -4 -7 q-1 -39 0 -102 q0 -36 0 -56 q0 -5 -1 -6 q-3 -2 -13 -5 q-3 -2 -4 -2 q-2 -1 -3 0 q0 0 0 2 l0 26 q-29 0 -36 -1 l-83 0 l0 -14 q1 -4 -2 -5 q-4 -4 -16 -7 ZM72 49 l-6 7 l-1 -46 l71 2 q2 0 7 1 q27 1 37 4 q1 -1 4 -4 l0 138 l-117 -5 l-1 -38 q10 1 26 1 l37 3 q17 1 35 4 q7 -7 12 -12 q1 -2 1 -3 q0 0 -3 0 q-19 0 -32 -1 l-46 -2 q-2 0 -19 -1 q4 0 -7 -1 l-4 5 l0 -40 q17 0 28 1 l36 2 q23 2 35 5 q3 -2 10 -10 q1 -1 2 -2 q2 -2 2 -3 q-1 -1 -4 -1 q-4 1 -18 0 q-8 0 -13 0 l-46 -3 q-15 0 -26 -1 Z" /><glyph glyph-name="" unicode="&#x8bbe;" d="M216 93 q4 -3 3 -4 q0 -1 -5 -2 q-4 -1 -8 -7 q0 0 -1 -1 q-17 -33 -38 -55 q26 -19 79 -31 l0 -5 q-15 -3 -28 -10 q-3 -2 -9 0 q-34 14 -57 33 q-30 -22 -87 -40 l-3 4 q54 26 78 49 q-21 24 -34 60 q-7 0 -9 -1 l-10 11 q6 0 21 1 q12 0 16 0 l55 3 q8 0 10 4 q3 3 3 6 q1 4 5 1 q13 -11 19 -16 ZM200 185 q3 -3 3 -4 q0 -2 -4 -3 q-6 -2 -5 -6 l-1 -23 q-2 -20 13 -19 q10 -1 19 0 q1 2 4 -2 q1 -2 3 -5 q3 -4 4 -5 q1 -4 -2 -4 q-8 -1 -29 0 q-35 -1 -31 37 l1 29 l-42 -2 q2 -60 -43 -80 l-2 3 q26 31 26 69 q1 9 -2 26 q0 2 0 2 q1 0 3 -1 q9 -4 18 -9 l38 1 q3 0 4 4 q1 1 1 5 q1 3 2 3 q1 0 3 -2 q5 -4 13 -9 q4 -4 6 -5 ZM100 51 l3 -3 q-18 -19 -54 -54 q-3 -3 -7 0 q-2 1 -7 6 q-4 2 -6 4 q17 10 16 23 l1 85 l-31 -3 l-9 11 l36 2 q2 0 4 3 q0 1 0 3 q1 2 1 4 q0 2 1 2 q1 1 3 -1 q11 -9 19 -16 q4 -3 -1 -6 q-4 -3 -4 -8 l-1 -78 l36 26 ZM127 86 q-7 -1 -15 -1 q18 -30 39 -49 q20 22 33 52 l-57 -2 ZM34 200 l3 3 q28 -16 42 -29 q6 -6 1 -13 q-4 -9 -12 -17 q-11 29 -34 56 Z" /><glyph glyph-name="" unicode="&#x8bf7;" d="M108 -27 q-2 -1 -2 0 q-1 0 -1 2 q3 49 3 105 q0 11 -1 22 q0 2 1 2 q0 1 2 0 q4 -1 12 -7 q4 -2 5 -3 l70 3 q4 0 5 3 q2 1 2 7 q1 2 1 2 q1 1 3 -1 q11 -9 18 -17 q2 -2 1 -2 q0 -1 -2 -2 q-4 -1 -3 -8 q0 -12 0 -33 q1 -29 0 -37 q0 -18 -9 -25 q-4 -3 -9 -9 q-4 -4 -6 -6 q-3 -4 -6 -2 q-2 2 0 7 q4 12 -2 15 q-11 8 -27 14 l1 4 l35 -9 q5 10 3 89 l-75 -3 l-1 -19 q4 0 9 1 q4 0 5 0 l27 1 q4 0 10 1 q7 0 10 1 q2 -2 5 -5 q3 -2 4 -3 q1 -2 0 -2 q0 -1 -2 -1 q-12 0 -24 0 l-27 -1 q-5 -1 -17 -1 l0 -20 q3 0 8 1 q4 0 6 0 l28 1 q9 0 19 2 q1 -1 3 -3 q5 -4 6 -6 q2 -2 -1 -2 q-10 0 -24 0 l-28 -1 q-5 -1 -17 -1 l-1 -41 q0 -6 -2 -6 q-9 -6 -15 -7 ZM107 139 l-10 11 q18 0 32 0 l26 2 l0 18 l-25 -1 q-12 0 -31 -2 l-9 11 q20 0 36 0 l29 2 q0 19 -1 28 q0 3 1 3 q0 0 3 -1 q10 -4 16 -7 q1 -1 1 -3 q0 -2 0 -9 q-1 -7 -1 -10 l15 1 q22 0 34 4 q2 -1 6 -5 q4 -4 6 -5 q1 -1 1 -2 q-1 -1 -3 -1 q-3 0 -13 0 q-15 -1 -21 -1 l-25 -1 l0 -18 l10 0 q2 0 9 1 q18 1 25 3 q8 -6 11 -9 q1 -1 1 -2 q0 -1 -2 -1 q-3 0 -11 0 q-13 -1 -19 -1 l-24 -1 l0 -19 l28 1 q2 0 6 1 q20 1 29 4 q2 -2 7 -7 q3 -2 4 -3 q2 -2 1 -3 q0 -1 -2 -1 q-12 0 -33 0 l-94 -4 q-13 0 -29 -2 l-10 11 q27 0 35 1 l39 1 l0 19 l-23 -1 q-11 0 -25 -2 ZM42 -8 q-3 3 -13 10 q17 11 16 21 l0 89 l-32 -2 l-7 10 l35 2 q3 0 4 3 q0 1 0 3 q1 2 1 4 q0 0 0 1 q1 4 4 0 q12 -10 19 -16 q2 -2 2 -3 q0 -2 -3 -3 q-4 -1 -4 -6 l0 -83 l30 21 l3 -3 q-35 -37 -48 -47 q-3 -4 -7 -1 ZM65 145 q-10 23 -35 54 l3 3 q30 -17 41 -29 q5 -4 2 -12 q-5 -9 -11 -16 Z" /><glyph glyph-name="" unicode="&#x8f7d;" d="M30 167 q22 0 29 1 l20 1 l0 4 q0 21 -1 32 q0 2 0 2 q1 1 3 0 q10 -3 16 -7 q1 -1 1 -4 q0 -11 0 -22 l0 -4 q20 2 32 5 q6 -6 9 -10 q2 -2 1 -2 q0 -1 -3 -1 q-2 0 -10 0 q-12 -1 -17 -1 l-13 -1 l0 -26 l53 3 q-1 14 -1 45 q0 9 -2 23 q0 -1 0 2 q0 3 1 3 q0 1 4 -1 q2 -1 6 -3 q5 -3 6 -4 q4 0 3 -6 q0 -33 1 -58 q40 2 60 7 q6 -4 14 -12 q1 -2 1 -3 q0 -1 -2 -1 q-39 0 -52 -1 l-21 -1 q3 -45 12 -72 q9 14 17 30 q1 3 4 9 q4 10 5 14 q1 3 2 3 q1 0 3 -2 q8 -8 11 -11 q3 -4 0 -6 q-3 -6 -10 -17 q-12 -22 -25 -38 q11 -22 29 -38 l14 52 l5 -2 q-4 -41 -4 -51 q-2 -10 6 -17 q6 -6 5 -8 q-7 -4 -26 6 q-29 17 -42 44 q-19 -21 -67 -46 l-3 3 q47 36 63 58 q-13 33 -17 88 l-75 -3 q1 -1 2 -2 q1 0 3 -3 q2 -2 1 -5 q-1 0 -1 -1 l-6 -11 l25 1 q2 0 5 0 q21 2 29 5 q1 -1 4 -4 q4 -3 5 -5 q3 -2 3 -3 q-1 -1 -4 -1 q-20 0 -31 -1 l-41 -2 l-9 -20 q-3 -6 -6 -10 l30 2 l0 24 q0 2 1 2 q0 1 2 0 q10 -4 12 -6 q3 0 2 -3 q-1 -7 -1 -16 l9 1 q3 1 13 2 q9 1 12 1 q3 -2 7 -7 q1 -1 2 -2 q2 -2 0 -3 q0 1 -1 0 q-9 1 -29 -1 l-14 -1 q0 -12 0 -20 l46 4 l1 -4 q-13 -3 -47 -11 q-1 -10 -1 -39 q1 -4 -2 -4 q-3 -2 -13 -7 q-2 -2 -2 2 q1 24 1 44 q-32 -8 -47 -10 q-3 -2 -6 1 q-2 4 -7 14 q4 -7 -2 3 l63 5 q0 9 0 21 l-29 -2 q-9 -1 -17 -4 l-8 12 q10 2 13 10 l10 21 q-12 0 -22 -2 l-9 10 q6 0 18 1 q7 0 10 0 l7 1 l3 5 q0 1 2 6 q4 7 5 11 l-14 0 q-16 -1 -35 -3 l-9 12 q22 0 41 0 l30 2 l0 26 l-17 -1 q-11 0 -23 -2 l-9 11 ZM177 190 l2 3 q34 -15 40 -21 q5 -3 2 -10 q-4 -10 -10 -16 q-9 18 -34 44 Z" /><glyph glyph-name="" unicode="&#x901f;" d="M79 23 l-3 4 q44 31 71 66 l-30 -1 l0 -3 q1 -3 -2 -5 q-5 -3 -13 -6 q-2 -1 -3 0 q0 0 0 2 q0 23 0 50 q0 9 -1 19 q0 2 1 2 q0 1 3 0 q2 -1 6 -4 q5 -3 6 -5 l38 2 l0 24 l-28 -1 q-11 0 -33 -2 l-10 12 q34 0 40 1 l30 1 q0 15 0 29 q-1 2 0 2 q1 1 3 0 q2 -1 5 -2 q7 -3 10 -4 q1 -1 1 -4 q0 -9 0 -21 l20 1 q2 0 6 0 q24 2 34 4 q4 -3 12 -11 q2 -2 1 -2 q0 -1 -2 -1 q-19 0 -38 0 l-33 -1 q0 -5 -1 -13 q0 -8 0 -11 l30 1 q3 0 5 3 q0 1 0 2 q1 2 1 4 q1 2 1 2 q1 1 3 -1 q4 -3 11 -9 q4 -4 6 -5 q5 -4 0 -6 q-4 -1 -4 -6 l0 -35 q0 -4 -1 -5 q-1 -1 -4 -2 q-7 -4 -10 -5 q-2 -1 -3 0 q0 0 0 2 l0 10 q-9 0 -19 0 l-16 -1 l0 -17 q47 -16 60 -22 q6 -1 4 -11 q-2 -10 -5 -18 q-25 23 -59 45 q0 -24 0 -52 q1 -4 -2 -5 q-9 -6 -14 -7 q-2 -1 -2 0 q-1 0 -1 2 q1 14 1 62 q-28 -27 -72 -48 ZM218 -21 q-95 3 -164 36 l-26 -33 q-4 -6 -8 -2 l-10 8 q-3 1 -3 3 q0 1 2 3 l36 27 l0 89 l-31 -2 l-9 10 l35 2 q5 0 6 3 q0 1 1 3 q0 2 0 3 q0 3 1 3 q0 1 2 -1 q1 -1 3 -3 q9 -7 15 -14 q2 -2 2 -2 q0 -1 -2 -2 q-4 -2 -4 -9 l0 -79 q85 -26 186 -21 l0 -3 q-10 -5 -24 -16 q-2 -3 -8 -3 ZM151 103 q1 16 1 31 l-35 -1 l0 -31 l34 1 ZM204 136 l-35 -1 q0 -16 0 -31 l13 1 q10 0 17 2 l5 -4 l0 33 ZM64 143 q-11 29 -34 57 l3 3 q31 -19 43 -33 q4 -3 1 -11 q-5 -7 -13 -16 Z" /><glyph glyph-name="" unicode="&#x96e8;" d="M25 169 l-11 14 q23 0 42 0 l129 6 q3 0 10 1 q27 2 36 4 q3 -2 7 -6 q5 -5 7 -6 q2 -2 2 -4 q-1 -1 -4 -1 q-23 2 -46 0 l-70 -2 q7 -3 10 -5 q3 -1 2 -3 q0 -22 -1 -30 l58 3 q4 0 5 3 q1 1 2 4 q1 1 1 2 q0 3 1 3 q1 0 3 -2 q11 -8 20 -17 q2 -1 2 -3 q-1 -1 -3 -2 q-6 -2 -5 -8 q0 -22 -1 -82 q0 -22 0 -25 q-1 -18 -12 -26 q-8 -8 -14 -15 q-4 -4 -7 -3 q-2 1 -1 7 q4 12 -2 14 q-1 0 -3 1 q-20 9 -34 13 l2 5 l47 -9 q4 8 4 128 l-63 -3 q0 -93 1 -140 q0 -5 -3 -6 q-4 -2 -15 -7 q-2 -1 -3 0 q0 0 0 2 q0 16 0 49 q1 69 0 101 l-60 -3 q-1 -38 -1 -136 q0 -4 -2 -6 q-12 -6 -16 -7 q-3 -1 -3 0 q-1 0 -1 2 q2 31 2 140 q0 13 0 28 q-1 3 0 3 q0 1 3 0 q3 -1 9 -5 q7 -4 9 -6 l60 2 l0 2 q1 20 -1 36 l-57 -2 q-4 0 -14 -1 q-16 -1 -21 -2 ZM171 20 q-9 19 -26 44 l2 3 q24 -11 35 -20 q4 -4 1 -10 q-4 -9 -12 -17 ZM87 19 q-14 31 -24 45 l3 3 q26 -15 33 -22 q4 -5 1 -9 q-3 -7 -13 -17 ZM176 67 q-12 22 -29 41 l2 3 q22 -8 36 -17 q4 -2 2 -8 q-5 -12 -11 -19 ZM92 68 q-9 18 -29 40 l2 3 q24 -8 36 -16 q4 -3 2 -9 q-4 -12 -11 -18 Z" /><glyph glyph-name="" unicode="&#x97f3;" d="M182 -30 q-3 -1 -3 0 q-1 0 -1 2 l0 23 q-4 0 -12 -1 q-9 0 -13 0 l-76 -3 l0 -7 q0 -3 -1 -5 q-1 0 -1 -1 q-10 -5 -15 -7 q-2 -1 -3 0 q0 0 0 2 q0 11 0 35 q1 30 1 47 q0 6 -1 17 q0 9 0 13 q0 3 0 3 q1 1 3 0 q2 -1 6 -4 q6 -4 8 -5 l100 3 q3 0 4 4 q1 3 1 5 q0 3 1 3 q1 1 3 -1 q7 -6 19 -15 q3 -3 3 -4 q0 -2 -3 -3 q-4 -3 -4 -7 q0 -37 0 -81 q0 -3 -1 -5 q-2 -1 -7 -4 q-6 -3 -8 -4 ZM20 99 l-10 12 q31 0 41 1 l43 2 q-9 27 -23 45 q-10 0 -28 -2 l-10 12 q28 0 36 1 l60 3 q-8 17 -22 35 l2 3 q21 -8 33 -17 q6 -4 2 -9 q-4 -7 -10 -12 l29 2 q22 0 44 5 q2 -1 7 -6 q4 -4 6 -5 q1 -1 1 -2 q-1 -1 -3 -1 q-15 0 -41 -2 q2 -1 5 -3 q5 -4 6 -5 q3 -2 0 -4 q-4 -2 -9 -8 q-10 -12 -28 -27 l32 2 q37 2 52 5 q2 -1 6 -6 q5 -4 6 -5 q2 -2 1 -3 q0 -1 -3 -1 q-33 0 -46 -1 l-144 -7 q-16 0 -35 -2 ZM79 30 l-2 3 l0 -33 l73 2 q3 0 9 1 q13 1 17 2 q0 0 1 -1 q0 -1 1 -1 l0 69 l-101 -4 l0 -28 q3 0 11 0 q8 1 13 1 l36 2 q20 2 25 2 q6 -5 9 -8 q1 -1 1 -2 q0 -1 -2 -1 q-19 0 -29 -1 l-37 -2 q-19 0 -25 -1 ZM108 126 q-1 -1 -4 -4 q-5 -6 -8 -8 l45 2 q9 15 21 38 q1 2 2 5 q1 4 1 5 l-87 -4 q24 -14 30 -22 q6 -4 0 -12 Z" /><glyph glyph-name="" unicode="&#x98de;" d="M208 62 q-22 21 -67 47 q-4 -92 71 -108 l16 62 l5 -2 q0 -11 -2 -32 q-1 -18 -1 -22 q-1 -9 9 -13 q9 -5 7 -9 q-15 -6 -57 7 q-47 13 -60 54 q-15 40 -5 130 l-61 -4 q-8 0 -24 -1 q-5 -1 -7 -1 l-10 13 q28 0 38 1 l60 2 q0 0 1 0 q3 1 4 4 q1 1 2 4 q1 1 1 2 q1 3 2 4 q1 0 3 -2 q11 -10 19 -17 q3 -3 3 -4 q-1 -1 -4 -2 q0 0 -1 0 q-6 -2 -5 -7 q-4 -29 -4 -53 q4 0 7 -2 q23 25 36 44 q6 9 9 16 q2 3 4 0 q1 -1 1 -1 q10 -8 15 -15 q2 -2 2 -3 q0 -1 -3 -2 q-1 -1 -7 -6 q-4 -2 -6 -4 q-29 -21 -44 -30 q35 -9 51 -17 q10 -2 7 -12 q-1 -8 -5 -21 Z" /><glyph glyph-name="" unicode="&#xffe5;" d="M78 -5 l0 6 q40 -2 35 27 l0 31 l-52 0 l0 7 l52 0 l0 8 l-12 18 l-40 0 l0 7 l36 0 l-34 53 q-18 27 -37 26 l0 8 l89 0 l0 -8 q-24 0 -29 -5 q-6 -4 2 -17 l45 -70 l42 67 q10 14 6 20 q-4 5 -24 5 l0 8 l73 0 l0 -8 q-29 -1 -47 -29 l-32 -50 l37 0 l0 -7 l-42 0 l-9 -13 l0 -13 l51 0 l0 -7 l-51 0 l0 -31 q-4 -29 35 -27 l0 -6 l-94 0 Z" /></font>
</defs>
</svg>
